<svg width="628" height="632" viewBox="0 0 628 632" fill="none" xmlns="http://www.w3.org/2000/svg">
<path d="M324.18 151.41L324.41 149.078H269.416C269.09 150.064 268.695 151.026 268.236 151.957H331.547L324.18 151.41ZM493.593 149.078H172.176C139.491 149.139 108.163 162.161 85.0591 185.29C61.9552 208.418 48.96 239.767 48.922 272.464V508.526C48.9146 514.306 49.3282 520.079 50.1594 525.799C50.5335 528.678 51.0227 531.557 51.6271 534.436V541.892L54.217 544.454C61.7693 569.851 77.3519 592.112 98.6261 607.897C119.9 623.682 145.718 632.139 172.205 631.998H493.593C509.792 632.002 525.832 628.813 540.798 622.614C555.764 616.414 569.363 607.326 580.817 595.868C592.271 584.41 601.356 570.806 607.553 555.835C613.75 540.863 616.938 524.817 616.934 508.613V272.55C616.919 239.823 603.922 208.44 580.797 185.29C557.672 162.14 526.308 149.117 493.593 149.078ZM614.056 508.497C614.065 530.392 608.094 551.874 596.79 570.622C596.672 570.853 596.538 571.074 596.387 571.284C592.494 577.692 588.004 583.716 582.976 589.277C571.664 601.767 557.866 611.754 542.468 618.595C527.07 625.437 510.413 628.982 493.564 629.004H172.176C146.233 629.151 120.946 620.857 100.126 605.373C79.3059 589.888 64.0821 568.053 56.7495 543.158V542.813L54.5048 540.567V533.86C53.9005 530.981 53.4113 528.102 53.0372 525.396C52.2309 519.799 51.8269 514.152 51.8285 508.497V272.435C51.8741 240.511 64.5655 209.907 87.1227 187.325C109.68 164.744 140.264 152.026 172.176 151.957H493.593C525.53 151.995 556.148 164.704 578.731 187.295C601.314 209.886 614.018 240.515 614.056 272.464V508.497ZM324.18 151.525L324.41 149.194H269.416C269.09 150.179 268.695 151.141 268.236 152.072H331.547L324.18 151.525Z" fill="#EEF3F8"/>
<path d="M592.473 272.464V508.526C592.435 534.735 582 559.858 563.461 578.377C544.921 596.897 519.793 607.298 493.593 607.298H172.176C149.98 607.295 128.43 599.828 110.987 586.096C93.5448 572.365 81.2229 553.166 76.0015 531.586C75.2724 528.576 74.7056 525.53 74.3036 522.46C73.6318 517.836 73.2952 513.17 73.2964 508.498V272.435C73.304 246.206 83.7251 221.054 102.268 202.51C120.811 183.966 145.957 173.548 172.176 173.548H493.593C519.818 173.548 544.968 183.97 563.512 202.52C582.055 221.07 592.473 246.23 592.473 272.464Z" fill="#EEF3F8"/>
<path d="M289.848 226.403L250.365 261.381V261.553L229.012 292.587C205.472 250.326 232.12 211.52 259.977 208.439C266.228 207.468 272.626 208.297 278.423 210.829C281.441 212.312 284.056 214.502 286.045 217.214C288.034 219.926 289.339 223.078 289.848 226.403Z" fill="#3E3C61"/>
<path d="M289.848 226.403L250.365 261.381C228.782 244.568 234.221 224.417 278.423 210.829C281.441 212.312 284.056 214.502 286.045 217.214C288.034 219.926 289.339 223.078 289.848 226.403Z" fill="#222244"/>
<path d="M368.957 259.711V264.029V264.317L368.353 284.872L367.778 308.449L367.288 327.305V327.708L367.144 333.466L366.885 343.974L366.454 362.168L366.224 371.063V376.821L365.706 397.663L365.504 405.004V411.107L364.698 443.293L364.065 469.202L363.921 474.959L363.576 488.806L363.375 497.299V501.704L363.087 513.42V516.731V519.207L362.569 539.934V544.511V546.642V550.643V552.601L362.396 558.79V564.548L361.705 591.724V597.654L361.475 607.183H230.48L227.602 561.669L227.343 555.911L225.674 530.002L225.271 523.496L224.926 517.738L223.314 492.06L222.278 476.025V473.635L221.904 467.878L219.602 431.547L219.256 425.789V424.667L218.422 411.942L217.76 401.32L217.933 400.513L222.163 379.21L225.041 365.363L225.76 361.678L226.882 355.921L231.228 334.186L231.516 332.689L233.76 321.433L234.25 318.957L234.883 315.733L242.365 278.308L245.617 274.105L250.365 267.138L258.538 256.631L264.754 248.57L270.768 240.797H282.02L317.992 248.599L327.575 250.7L348.381 255.249L355.403 256.775L359.432 257.638L361.964 258.185L368.037 259.509L368.957 259.711Z" fill="#18CEFF"/>
<path d="M366.195 371.236V376.993L338.827 380.563C323.028 382.607 306.481 386.321 290.538 384.133C275.229 382.118 260.466 374.892 246.135 369.451L225.501 361.621L226.623 355.863L252.955 365.852C267.66 371.437 282.682 378.692 298.682 378.922C314.683 379.153 330.827 375.784 346.597 373.712L366.195 371.236Z" fill="#18DEFF"/>
<path d="M367.259 327.766L367.115 333.523L338.683 337.237C322.884 339.31 306.337 342.995 290.394 340.836C275.085 338.792 260.322 331.566 245.991 326.125L233.357 321.346L234.48 315.589L252.811 322.526C267.516 328.111 282.538 335.395 298.539 335.625C314.539 335.855 330.683 332.458 346.453 330.414L367.259 327.766Z" fill="#D68EFF"/>
<path d="M365.475 405.091V411.194C360.142 412.863 354.789 414.428 349.417 415.886C307.144 427.372 263.419 432.61 219.63 431.432L219.285 425.674C222.969 425.674 226.681 425.847 230.364 425.847C276.203 425.953 321.781 418.951 365.475 405.091Z" fill="#18DEFF"/>
<path d="M363.749 469.461L363.605 475.218C330.674 477.814 297.618 478.467 264.61 477.176C250.375 476.485 236.178 475.247 222.019 473.462L221.645 467.705L224.206 468.021C270.653 473.693 317.244 472.627 363.749 469.461Z" fill="#18DEFF"/>
<path d="M362.598 513.766V519.523L352.554 520.358C310.203 523.668 267.703 524.677 225.242 523.381L224.897 517.623H228.897C273.501 518.88 318.14 517.592 362.598 513.766Z" fill="#18DEFF"/>
<path d="M361.533 558.905V564.663C330.856 569.442 299.862 575.142 268.811 570.881C254.973 568.622 241.264 565.623 227.746 561.899L227.343 555.911C242.998 559.798 258.653 564.231 274.768 565.843C291.898 567.24 309.131 566.69 326.136 564.202C337.878 562.705 349.705 560.719 361.533 558.905Z" fill="#18DEFF"/>
<path d="M360.698 591.839V597.769C355.259 599.324 349.763 600.792 344.266 602.145C336.755 604.016 329.187 605.743 321.618 607.298H288.61C293.762 606.55 298.913 605.743 304.035 604.822L305.215 604.621C323.742 601.311 342.088 597.054 360.18 591.868L360.698 591.839Z" fill="#D68EFF"/>
<path d="M368.957 259.711L368.353 284.872C362.526 293.253 356.122 301.218 349.187 308.708C312.323 348.436 266.739 364.528 231.199 332.573L242.048 278.078L270.998 240.653H282.02L368.957 259.711Z" fill="#18A6FF"/>
<path d="M268.149 234.809C247.487 266.937 251.804 316.539 300.093 316.711C348.381 316.884 362.079 294.976 362.079 293.882C362.079 292.788 361.159 266.188 361.159 266.188L322.913 248.541L279.488 226.086L268.149 234.809Z" fill="#007FD7"/>
<path d="M249.386 358.512C249.386 360.296 249.386 362.312 249.386 364.499C249.386 365.91 249.386 367.378 249.386 368.962C249.386 369.509 249.386 370.056 249.386 370.631C249.386 375.784 249.185 381.686 249.041 388.221C249.041 391.848 249.041 395.648 248.811 399.736C248.667 407.653 248.466 416.26 248.264 425.3V425.617C248.264 427.517 248.264 429.445 248.264 431.374C247.976 443.782 247.66 456.938 247.343 470.382C247.343 472.311 247.343 474.24 247.343 476.14C247.084 486.993 246.825 497.961 246.537 508.872C246.537 511.981 246.394 515.061 246.307 518.141C246.307 520.041 246.307 521.941 246.163 523.899C246.163 524.619 246.163 525.338 246.163 526.058C245.876 537.832 245.588 549.348 245.3 560.345C245.3 562.302 245.3 564.26 245.3 566.102C244.926 581.36 244.552 595.409 244.264 607.384H174.133C175.766 603.032 177.122 598.58 178.191 594.055C179.284 588.125 179.14 550.47 178.795 518.803C178.795 512.067 178.795 505.619 178.594 499.803C178.594 495.312 178.594 491.167 178.421 487.655C178.421 482.185 178.421 477.953 178.219 475.564V474.873C178.219 473.952 178.219 473.462 178.219 473.462L177.874 473.894L177.299 474.556L174.421 477.867L173.183 479.249C172.234 480.314 171.14 481.523 169.932 482.818L167.572 485.409C166.334 486.762 164.982 488.288 163.572 489.67C154.263 499.575 144.303 508.846 133.758 517.422C125.988 524.02 117.254 529.389 107.858 533.341H107.513C102.641 535.128 97.4776 535.987 92.2896 535.875C87.7733 535.749 83.3213 534.773 79.167 532.996H78.9944L77.1526 532.161L76.1454 531.672L75.4259 531.298C74.2461 530.635 73.095 529.944 71.9726 529.167H71.8C69.0431 527.243 66.5051 525.023 64.2315 522.546L62.7062 520.819L62.5336 520.617C62.0156 519.984 61.4976 519.35 61.0084 518.688C59.9711 517.372 59.0103 515.998 58.1306 514.572C57.7853 514.053 57.4687 513.535 57.181 513.017C56.8644 512.499 56.5766 511.952 56.2888 511.434C55.19 509.33 54.2287 507.156 53.4111 504.928C53.1809 504.39 52.9794 503.843 52.8068 503.287C52.4902 502.452 52.2312 501.617 52.001 500.782C51.9111 500.527 51.8342 500.268 51.7708 500.005C51.0454 497.187 50.7829 494.27 50.9938 491.368C50.9938 490.706 50.9938 490.015 51.1952 489.325C51.3967 488.634 51.3679 487.914 51.483 487.223C51.5981 486.532 51.7995 485.496 52.001 484.632C52.001 484.056 52.26 483.452 52.4326 482.876C52.6053 482.3 52.6917 481.84 52.8355 481.321C52.9794 480.803 53.296 479.709 53.555 478.903C53.814 478.097 54.1305 477.147 54.4471 476.255C54.7636 475.362 54.9939 474.758 55.2816 474.009C55.5694 473.261 55.886 472.483 56.2025 471.735C56.8356 470.18 57.5263 468.655 58.2169 467.129C58.9076 465.603 59.6558 464.25 60.4328 462.638C61.958 459.759 63.5984 456.679 65.2675 453.829C66.1883 452.313 67.1476 450.816 68.1452 449.338C68.7495 448.33 69.3826 447.352 70.0158 446.459C71.2532 444.53 72.4906 442.688 73.6993 440.961C74.2748 440.097 74.8504 439.291 75.4259 438.514L77.1526 436.124C79.2246 433.245 81.0663 430.942 82.534 429.186C88.8938 421.557 96.0595 407.307 103.542 398.527C103.738 398.284 103.95 398.053 104.175 397.836C107.945 393.547 111.801 390.725 115.686 391.013C116.914 389.012 118.614 387.342 120.636 386.148C121.758 385.371 122.621 384.881 122.621 384.881C122.621 384.881 122.909 384.018 123.484 382.463C124.722 379.009 127.197 372.157 130.477 363.751L132.981 357.389L135.542 351.055C135.542 350.739 135.801 350.451 135.916 350.134C136.032 349.818 136.06 349.818 136.118 349.645L136.693 348.263C138.449 344.06 140.291 339.627 142.161 335.51L142.765 334.186L143.37 332.861C145.183 328.889 147.025 325.002 148.866 321.346C149.097 320.885 149.298 320.454 149.528 320.022C149.758 319.59 149.96 319.158 150.19 318.755C152.406 314.495 154.622 310.551 156.751 307.24C157.01 306.808 157.298 306.405 157.557 306.002L158.392 304.793C159.469 302.867 160.68 301.02 162.018 299.266C163.026 298.182 164.092 297.153 165.212 296.185C166.047 295.466 166.939 294.746 167.86 294.026C168.809 293.307 169.788 292.587 170.737 291.896L172.032 291.032L173.327 290.197C175.342 288.96 177.471 287.75 179.687 286.628C190.948 281.119 202.584 276.415 214.508 272.55L220.839 270.478C229.156 267.599 237.444 264.72 245.214 261.64V285.102C246.105 289.381 246.759 293.705 247.171 298.057V298.229C247.43 300.907 247.746 303.987 248.005 307.585C248.264 311.184 248.609 316.049 248.84 321.173C248.84 323.16 249.012 325.232 249.07 327.42C249.07 331.422 249.329 335.711 249.358 340.375C249.358 341.757 249.358 343.254 249.358 344.578V344.952C249.444 349.213 249.444 353.733 249.386 358.512Z" fill="#55557C"/>
<path d="M189.932 358.512L182.45 413.9L178.421 468.597L177.817 473.779C176.407 475.42 171.054 481.638 163.428 489.555C162.766 474.816 155.715 459.443 156.147 457.888C156.579 456.334 163.946 433.505 165.471 428.927C166.996 424.35 172.579 412 171.888 399.535C171.198 387.07 155.629 389.344 142.449 388.509C133.298 387.876 125.182 387.444 123.053 382.176C121.984 378.877 122.21 375.295 123.686 372.157C125.222 368.891 127.382 365.957 130.046 363.521C148.32 344.607 197.385 315.992 189.932 358.512Z" fill="#3E3C61"/>
<path d="M178.191 474.873C178.002 474.869 177.816 474.829 177.642 474.753C177.469 474.677 177.313 474.568 177.182 474.431C177.051 474.295 176.948 474.134 176.879 473.958C176.81 473.782 176.777 473.594 176.781 473.405C177.612 436.149 181.209 399.006 187.544 362.283C187.614 361.91 187.828 361.579 188.141 361.363C188.454 361.148 188.839 361.064 189.213 361.132C189.588 361.208 189.919 361.429 190.134 361.746C190.349 362.064 190.432 362.453 190.364 362.83C184.062 399.392 180.484 436.371 179.659 473.463C179.655 473.652 179.614 473.838 179.538 474.011C179.462 474.184 179.353 474.341 179.217 474.472C179.081 474.603 178.92 474.706 178.744 474.775C178.568 474.844 178.38 474.877 178.191 474.873Z" fill="#3E3C61"/>
<path d="M148.981 482.905C148.849 482.935 148.711 482.935 148.578 482.905C148.395 482.856 148.224 482.77 148.076 482.652C147.927 482.534 147.805 482.387 147.716 482.219C147.626 482.052 147.573 481.868 147.558 481.679C147.543 481.49 147.567 481.299 147.629 481.12C148.377 478.615 166.593 419.629 169.241 414.907C171.601 410.704 172.637 397.894 167.831 391.416C167.609 391.108 167.515 390.727 167.569 390.351C167.622 389.975 167.819 389.635 168.118 389.401C168.271 389.289 168.445 389.209 168.629 389.164C168.813 389.119 169.004 389.112 169.191 389.141C169.379 389.17 169.558 389.237 169.72 389.336C169.881 389.435 170.022 389.564 170.133 389.718C175.888 397.462 174.421 411.539 171.744 416.318C169.672 420.003 155.6 464.97 150.363 481.955C150.261 482.238 150.072 482.482 149.825 482.652C149.577 482.822 149.282 482.911 148.981 482.905Z" fill="#3E3C61"/>
<path d="M160.637 474.873C160.322 474.871 160.016 474.766 159.766 474.574C159.517 474.381 159.337 474.112 159.255 473.808L154.939 458.464C154.886 458.28 154.871 458.088 154.893 457.899C154.916 457.71 154.975 457.527 155.069 457.361C155.163 457.195 155.289 457.049 155.439 456.932C155.59 456.815 155.762 456.729 155.946 456.679C156.316 456.581 156.71 456.631 157.043 456.82C157.376 457.008 157.623 457.319 157.73 457.686L162.018 473.031C162.07 473.214 162.086 473.406 162.063 473.595C162.041 473.785 161.981 473.968 161.888 474.134C161.794 474.3 161.668 474.445 161.518 474.563C161.367 474.68 161.195 474.765 161.011 474.815L160.637 474.873Z" fill="#3E3C61"/>
<path d="M287.776 234.09C257.358 238.811 252.725 292.04 251.976 322.498C251.689 334.013 251.257 341.987 250.825 347.428C250.684 351.159 250.202 354.869 249.386 358.512C249.386 358.512 248.638 336.057 237.3 322.498C234.518 319.265 231.325 316.41 227.803 314.005C220.601 308.923 215.51 301.376 213.495 292.793C211.48 284.209 212.68 275.184 216.868 267.426C220.807 259.891 225.482 252.765 230.825 246.152C242.019 232.535 258.595 223.409 270.394 218.17C275.079 216.073 279.883 214.256 284.783 212.729L287.776 234.09Z" fill="#484870"/>
<path d="M284.668 212.729L287.545 234.09C257.358 238.811 252.725 292.04 251.976 322.498C251.689 334.013 251.257 341.987 250.825 347.428C244.178 321.317 243.516 249.837 270.394 218.17C275.041 216.077 279.807 214.26 284.668 212.729Z" fill="#3E3C61"/>
<path d="M398.483 88.4795C397.764 106.674 392.555 100.916 392.555 100.916C392.555 100.916 394.598 117.728 388.958 124.465C385.619 128.409 382.828 127.343 382.828 127.343C382.828 127.343 381.591 145.566 365.561 153.253C360.604 155.453 355.207 156.483 349.788 156.263C344.368 156.044 339.072 154.58 334.309 151.986L324.352 151.237L266.106 147.063L228.695 144.184C208.091 128.984 209.213 113.122 209.213 113.122C209.213 113.122 205.126 116.174 204.206 111.625C203.952 107.561 204.601 103.491 206.105 99.7068C206.105 99.7068 200.09 103.133 199.889 95.1583C200.335 90.2994 201.651 85.5604 203.774 81.1673L205.04 78.2885C207.314 73.3082 209.443 69.393 209.443 69.393C209.443 69.393 203.947 70.7748 204.608 64.3839C206.276 58.9959 209.017 54.0015 212.666 49.7019C217.291 43.516 222.644 37.9099 228.609 33.0049C241.361 22.413 256.729 15.452 273.099 12.8532C274.97 12.5365 276.898 12.2775 278.855 12.1047C270.912 8.76531 279.833 2.34557 295.43 3.7274C305.082 4.6462 314.599 6.64507 323.805 9.68653C323.345 9.22592 319.086 4.85013 320.927 2.05769C322.769 -0.734755 337.647 -2.8075 349.187 10.6941C360.727 24.1957 360.698 36.0564 360.698 36.0564C360.698 36.0564 362.367 29.2336 364.871 30.7594C367.374 32.2852 366.396 45.6716 364.871 48.9535C375.029 45.0383 387.893 48.9535 388.209 51.0262C388.526 53.0989 378.943 54.452 378.943 54.452C378.943 54.452 391.461 64.4126 396.353 77.4824C397.785 80.9707 398.509 84.7088 398.483 88.4795Z" fill="#3E3C61"/>
<path d="M275.142 15.4729C273.934 17.6032 269.847 15.4729 253.617 21.8926C235.113 29.0896 216.494 47.8019 211.659 55.7762C206.824 63.7505 211.458 64.9596 218.163 62.7429C224.868 60.5262 228.091 57.2731 226.796 60.7853C225.501 64.2974 217.904 67.1187 217.616 67.205C217.328 67.2914 211.86 77.2233 208.983 81.5991C206.393 85.3991 201.788 87.04 203.832 81.1672C204.197 80.1837 204.62 79.2225 205.098 78.2884C207.371 73.3081 209.501 69.3929 209.501 69.3929C209.501 69.3929 204.004 70.7747 204.666 64.3838C206.334 58.9958 209.075 54.0015 212.724 49.7019C217.349 43.5159 222.701 37.9099 228.667 33.0048C241.419 22.4129 256.787 15.4519 273.157 12.8531C275.747 13.0547 275.804 14.2638 275.142 15.4729Z" fill="#656289"/>
<path d="M310.05 61.908C310.05 61.908 307.316 103.276 287.776 126.537C281.362 134.207 274.07 141.096 266.049 147.063L228.638 144.184C208.033 128.984 209.155 113.122 209.155 113.122C209.155 113.122 205.069 116.173 204.148 111.625C203.895 107.561 204.543 103.491 206.047 99.7067C214.911 103.507 230.221 93.5173 231.113 92.9991C230.364 93.8339 219.803 105.839 226.134 107.048C232.465 108.257 248.955 94.64 248.955 94.64C248.955 94.64 247.286 101.463 256.063 97.5188C264.84 93.5748 277.646 80.5338 278.452 79.7278C278.02 80.4763 272.869 89.6597 278.452 88.5945C284.035 87.5293 295.172 72.5883 295.172 72.5883C295.172 72.5883 292.553 81.3975 296.495 78.346C300.438 75.2944 310.05 61.908 310.05 61.908Z" fill="#222244"/>
<path d="M398.454 88.4796C397.735 106.674 392.526 100.916 392.526 100.916C392.526 100.916 394.569 117.728 388.929 124.465C385.591 128.409 382.799 127.344 382.799 127.344C382.799 127.344 381.562 145.566 365.389 153.253C360.431 155.453 355.034 156.483 349.615 156.263C344.196 156.044 338.9 154.58 334.136 151.986L324.179 151.238L331.575 77.5978C347.23 84.8811 349.158 75.3811 349.158 75.3811C351.256 78.4426 354.034 80.9767 357.274 82.7847C360.514 84.5928 364.129 85.6256 367.835 85.8024C380.986 87.069 375.778 76.0432 375.461 75.4099C376.123 76.0144 385.735 84.622 388.066 82.8372C390.397 81.0523 383.432 70.3719 383.432 70.3719C388.464 71.2248 393.07 73.7261 396.526 77.4826C397.889 80.9849 398.544 84.7225 398.454 88.4796Z" fill="#222244"/>
<path d="M354.885 146.689C359.087 120.492 373.965 115.483 378.367 125.731C382.77 135.98 376.842 166.61 365.072 167.733C353.302 168.856 352.813 152.447 352.813 152.447L354.885 146.689Z" fill="#EFF3F8"/>
<path d="M309.215 297.308C268.926 301.367 273.157 274.882 274.682 266.678C275.891 260.747 276.869 251.42 273.704 234.723C272.194 226.95 270.273 219.262 267.948 211.693L347.604 175.736C347.87 187.719 349.472 199.634 352.381 211.261C354.712 220.473 357.274 227.497 358.741 233.399C361.849 245.231 349.446 293.278 309.215 297.308Z" fill="#EFF3F8"/>
<path d="M352.554 211.232C343.604 233.053 324.611 252.284 304.524 250.326C292.708 249.124 281.767 243.549 273.848 234.694C272.338 226.921 270.417 219.233 268.092 211.664L347.748 175.707C348.023 187.691 349.635 199.606 352.554 211.232Z" fill="#D4DEE8"/>
<path d="M356.583 167.359C355.087 177.838 339.921 199.285 321.158 213.247L320.323 213.851C315.02 217.808 309.213 221.042 303.057 223.467C298.846 225.127 294.396 226.099 289.877 226.345C254.567 228.015 225.703 191.541 224.983 172.31C224.724 164.883 224.321 156.736 223.947 149.539C223.746 145.595 223.516 141.939 223.343 138.83L222.767 129.128C251.315 122.305 257.991 110.877 257.991 110.877C257.991 110.877 260.869 114.792 268.437 112.402C298.107 100.167 310.078 61.8505 310.078 61.8505C314.63 66.9057 320.201 70.9383 326.424 73.6824C329.415 75.0346 332.54 76.0671 335.748 76.7627C336.007 77.1081 336.237 77.4536 336.468 77.8278C337.273 79.0082 338.05 80.246 338.827 81.5415C352.756 105.378 359.202 149.28 356.583 167.359Z" fill="white"/>
<path d="M321.158 213.247L320.323 213.852C317.445 215.896 310.222 219.609 303.057 223.467C298.846 225.127 294.396 226.099 289.877 226.346C254.566 228.015 225.703 191.541 224.983 172.31C224.724 164.883 224.321 156.736 223.947 149.539C223.458 140.903 230.94 143.954 230.105 149.885C228.58 160.651 229.242 177.118 235.602 188.806C241.962 200.494 260.149 214.715 278.509 219.149C296.869 223.582 309.963 212.959 317.186 208.641C324.41 204.323 326.194 209.102 321.158 213.247Z" fill="white"/>
<path d="M336.439 77.8853C323.546 76.9353 310.337 75.0065 310.337 75.0065C304.817 88.4959 297.203 101.029 287.776 112.143C273.013 128.927 260.638 124.493 260.638 124.493C249.334 131.899 236.58 136.807 223.228 138.887L222.652 129.186C251.199 122.363 257.876 110.934 257.876 110.934C257.876 110.934 260.754 114.849 268.322 112.46C297.992 100.225 309.963 61.908 309.963 61.908C316.762 69.4272 325.735 74.6397 335.633 76.8202C335.978 77.1656 336.208 77.5975 336.439 77.8853Z" fill="#D4DEE8"/>
<path d="M470.312 579.834C472.873 589.104 476.067 598.575 479.147 607.413H304.092C304.092 606.607 304.092 605.772 304.092 604.938C304.092 598.23 303.834 591.062 303.718 583.519C303.718 579.777 303.718 575.948 303.517 572.004C303.517 570.085 303.517 568.166 303.517 566.246C303.517 565.268 303.517 564.289 303.517 563.368C303.517 562.446 303.517 562.187 303.517 561.583C303.517 560.978 303.517 560.402 303.517 559.827C303.517 555.998 303.517 552.083 303.344 548.139C303.344 546.44 303.344 544.742 303.344 543.014C303.344 542.036 303.344 541.028 303.344 540.136C303.344 535.952 303.287 531.749 303.172 527.526C303.172 526.116 303.172 524.648 303.172 523.266V517.508C303.172 512.643 303.172 507.749 302.97 502.884C302.97 496.925 302.97 490.994 302.769 485.093V478.011C302.769 476.025 302.769 474.038 302.769 472.081C302.567 455.815 302.395 440.212 302.28 426.02C302.28 424.033 302.28 422.104 302.28 420.262C302.28 417.326 302.28 414.447 302.28 411.626C302.28 401.291 302.078 392.136 302.021 384.622V383.874C302.021 382.953 302.021 382.089 302.021 381.225C302.021 380.419 302.021 379.642 302.021 378.865C302.021 376.706 302.021 374.719 302.021 372.934C302.021 366.256 302.021 362.484 302.021 362.484L304.898 353.848L309.1 341.21L309.301 340.634L311.085 335.28L312.985 329.522L316.841 324.714L324.841 314.725L362.252 268.031L363.432 266.563L369.187 259.567L379.864 244.856L386.022 246.065C393.533 247.562 400.814 249.146 407.864 250.873C423.313 254.463 438.348 259.643 452.729 266.332L457.103 268.434C459.779 269.816 462.398 271.313 464.959 272.781L465.391 273.069C475.459 279.076 484.624 286.481 492.614 295.063L478.772 329.119L465.074 362.772L461.506 371.581L459.722 375.928C459.722 375.928 459.722 377.569 459.722 380.506C459.722 384.219 459.722 390.035 459.722 397.376C459.722 402.126 459.722 407.509 459.894 413.353C459.894 414.073 459.894 414.792 459.894 415.512V416.923C460.153 441.105 460.643 472.282 461.535 499.803C461.535 500.293 461.535 500.753 461.535 501.214C461.535 501.703 461.535 502.193 461.535 502.682C461.707 507.835 461.909 512.844 462.11 517.623C462.11 518.487 462.11 519.351 462.11 520.185C462.11 521.02 462.11 521.999 462.254 522.891C462.974 537.286 463.837 549.377 464.902 556.804C465.247 559.28 465.707 561.842 466.254 564.49C466.254 565.008 466.456 565.498 466.571 566.016C466.686 566.534 466.974 567.801 467.175 568.693C467.376 569.586 467.52 570.305 467.722 571.112C468.787 574.134 469.535 576.984 470.312 579.834Z" fill="#55557C"/>
<path d="M479.147 607.298H425.419C422.8 597.971 419.404 591.724 414.915 591.724C405.726 591.55 396.557 590.8 387.461 589.478L381.533 588.672L379.461 588.384L377.476 588.068C372.353 587.262 369.015 586.657 369.015 586.657L370.713 576.898L371.116 574.508L371.547 572.033L382.569 508.181C382.569 508.181 386.253 507.519 391.634 506.338C393.792 505.849 396.238 505.273 398.8 504.611C412.066 501.329 429.074 495.975 431.951 489.353C432.326 488.49 432.786 487.338 433.304 485.985C436.872 476.456 443.175 456.247 447.549 441.882C450.427 432.727 452.355 425.962 452.355 425.962C452.355 425.962 452.096 425.473 448.901 424.724C445.099 423.917 441.257 423.312 437.39 422.91C434.719 422.474 432.16 421.511 429.863 420.078C427.566 418.645 425.576 416.77 424.009 414.562C420.964 410.533 418.646 406.002 417.16 401.175C419.589 401.557 421.972 402.194 424.268 403.075C426.8 403.853 429.707 404.803 432.642 405.782C439.175 407.941 445.765 410.157 447.923 410.906L448.642 411.165L449.937 411.712L460.096 416.001V416.922C460.355 441.104 460.844 472.282 461.736 499.803C461.736 500.293 461.736 500.753 461.736 501.214C461.736 501.703 461.736 502.193 461.736 502.682C461.909 507.835 462.11 512.844 462.312 517.623C462.312 518.487 462.312 519.35 462.312 520.185C462.312 521.02 462.312 521.999 462.456 522.891C463.175 537.285 464.038 549.376 465.103 556.804C465.449 559.28 465.909 561.842 466.456 564.49C466.456 565.008 466.657 565.498 466.772 566.016C466.887 566.534 467.175 567.801 467.377 568.693C467.578 569.586 467.722 570.305 467.923 571.111C468.585 573.99 469.334 576.725 470.111 579.575C472.873 589.104 475.981 598.662 479.147 607.298Z" fill="#484870"/>
<path d="M406.972 607.298H401.217C392.74 603.817 385.312 598.192 379.662 590.975C379.455 590.738 379.263 590.488 379.087 590.227C378.86 589.971 378.649 589.701 378.454 589.42L378.281 589.248C377.993 588.845 377.706 588.47 377.447 588.067C374.873 584.547 372.61 580.81 370.684 576.898C370.367 576.322 370.079 575.746 369.792 575.17C369.779 575.113 369.779 575.055 369.792 574.998C366.379 567.82 363.699 560.316 361.792 552.601C361.792 552.082 361.504 551.593 361.389 551.075C361.072 549.75 360.784 548.513 360.525 547.275C360.511 547.179 360.511 547.082 360.525 546.987L360.18 545.49V545.317C359.23 540.618 358.538 535.871 358.108 531.096C358.095 530.907 358.119 530.717 358.179 530.537C358.239 530.358 358.334 530.192 358.458 530.049C358.709 529.76 359.065 529.582 359.446 529.556C359.828 529.529 360.204 529.655 360.493 529.906C360.782 530.157 360.959 530.513 360.986 530.894C360.986 530.894 361.245 534.608 362.194 540.25C362.396 541.546 362.655 542.928 362.943 544.425C362.943 544.425 362.943 544.626 362.943 544.713L363.374 546.641C363.389 546.746 363.389 546.853 363.374 546.958C363.605 547.908 363.892 549.175 364.209 550.47C365.974 557.885 368.441 565.114 371.576 572.061L372.439 573.904V574.076C374.66 578.757 377.33 583.211 380.411 587.377L380.583 587.549C380.871 587.923 381.159 588.326 381.475 588.701C381.584 588.876 381.709 589.04 381.85 589.19L382.483 589.939C388.534 597.49 396.7 603.063 405.936 605.945C406.231 606.031 406.49 606.208 406.676 606.451C406.862 606.695 406.966 606.991 406.972 607.298Z" fill="#3E3C61"/>
<path d="M465.362 273.069C457.152 268.035 448.383 263.977 439.232 260.978C421.16 254.673 392.929 254.126 357.13 268.635L366.281 248.944L352.065 200.321L348.583 188.374C348.583 188.374 347.23 184.92 352.784 182.617C362.885 178.442 384.44 175.362 428.93 196.147C473.42 216.932 465.362 273.069 465.362 273.069Z" fill="#3E3C61"/>
<path d="M419.001 248.138C401.735 251.592 374.051 261.783 357.13 268.635L366.281 248.944L352.065 200.321C374.511 200.609 397.015 209.965 415.375 220.473C429.333 228.533 434.829 244.971 419.001 248.138Z" fill="#222244"/>
<path d="M384.325 281.993C383.675 287.859 381.6 293.477 378.279 298.355C374.958 303.232 370.493 307.222 365.274 309.975C359.979 312.854 353.101 316.539 344.151 321.49C313.532 338.763 300.985 362.456 300.985 362.456C300.644 348.811 302.51 335.201 306.51 322.152C310.194 310.81 316.352 299.583 326.482 292.328C354.482 272.176 355.029 214.197 350.914 203.949C349.706 198.841 348.927 193.641 348.583 188.403C353.065 190.444 357.319 192.953 361.274 195.888C370.511 202.624 381.85 214.053 384.555 230.75C387.26 247.447 385.936 267.196 384.325 281.993Z" fill="#484870"/>
<path d="M308.524 551.248L300.323 534.695C299.691 533.43 299.584 531.967 300.026 530.624C300.468 529.281 301.423 528.167 302.683 527.526C303.753 526.974 304.979 526.802 306.161 527.037C307.342 527.273 308.409 527.902 309.186 528.822L333.59 557.236L308.524 551.248Z" fill="#D4DEE8"/>
<path d="M469.592 532.737C469.592 534.407 465.707 575.084 465.707 575.084L429.419 581.763H423.865C419.453 581.761 415.103 582.807 411.174 584.815L409.649 585.592C406.442 587.206 402.953 588.184 399.375 588.471L338.194 593.825C326.372 594.86 314.581 591.532 305.042 584.469L257.962 549.434C257.022 548.726 256.351 547.718 256.059 546.577C255.768 545.435 255.874 544.229 256.36 543.156C256.846 542.083 257.683 541.208 258.733 540.675C259.782 540.142 260.982 539.982 262.135 540.222L277.445 543.504L274.567 540.625C274.083 540.159 273.699 539.6 273.437 538.982C273.174 538.363 273.04 537.698 273.042 537.027C273.038 535.868 273.446 534.746 274.193 533.86C274.721 533.243 275.379 532.751 276.121 532.42C276.751 532.144 277.432 532.001 278.121 532.001C278.809 532.001 279.49 532.144 280.121 532.42L314.309 548.081C328.513 548.669 342.742 548.053 356.842 546.239C360.6 545.8 364.125 544.191 366.918 541.639C369.712 539.087 371.634 535.721 372.411 532.017C373.012 529.577 373.33 527.075 373.36 524.561C373.378 523.437 373.04 522.335 372.394 521.414C371.748 520.494 370.827 519.802 369.763 519.437L339.575 509.16C338.457 508.769 337.486 508.042 336.796 507.078C336.106 506.115 335.73 504.962 335.719 503.776C335.713 503.02 335.86 502.27 336.152 501.572C336.444 500.875 336.874 500.244 337.417 499.717L338.108 499.113C338.956 498.514 339.95 498.156 340.985 498.076C353.286 497.391 365.618 497.487 377.907 498.364C392.296 499.717 398.828 505.245 409.073 510.34L410.627 511.088L412.843 512.096C414.138 512.672 415.462 513.219 416.901 513.737L446.887 516.155L458.398 517.998C458.398 517.998 469.592 531.067 469.592 532.737Z" fill="white"/>
<path d="M412.786 515.176C410.627 516.357 407.376 514.543 400.901 511.06C394.878 507.491 388.415 504.724 381.677 502.826C375.922 501.646 361.13 502.222 354.31 501.79C350.005 501.172 345.613 501.678 341.561 503.258C338.914 504.409 334.942 502.308 337.446 499.631L338.137 499.026C338.985 498.427 339.979 498.069 341.014 497.99C353.315 497.305 365.647 497.401 377.936 498.278C392.325 499.631 398.857 505.158 409.102 510.253C409.522 510.514 409.966 510.736 410.426 510.916H410.656C411.418 511.198 412.158 511.535 412.872 511.923C415.347 513.449 414.397 514.313 412.786 515.176Z" fill="white"/>
<path d="M376.986 533.198C376.986 536.739 374.108 548.052 364.554 550.471C355 552.889 323.057 553.637 316.755 553.349C310.452 553.062 289.157 540.884 283.862 538.207C280.15 536.307 275.862 533.946 276.092 532.449C276.723 532.173 277.404 532.03 278.092 532.03C278.781 532.03 279.462 532.173 280.092 532.449L314.28 548.11C328.484 548.698 342.713 548.082 356.813 546.268C360.571 545.829 364.096 544.22 366.89 541.668C369.684 539.116 371.605 535.75 372.382 532.046C374.108 529.081 376.986 530.261 376.986 533.198Z" fill="white"/>
<path d="M627.754 522.719C627.754 523.179 627.754 523.611 627.754 524.043C627.754 525.252 627.466 526.461 627.294 527.642C627.294 528.304 627.092 528.966 626.948 529.657C626.805 530.348 626.776 530.52 626.718 530.952C626.661 531.384 626.459 532.133 626.315 532.737L625.97 534.205C625.826 534.81 625.653 535.386 625.481 535.99L624.876 538.034L624.445 539.358C624.445 539.733 624.215 540.078 624.071 540.424L623.38 542.295C622.92 543.475 622.43 544.655 621.912 545.807C621.394 546.958 620.732 548.254 620.099 549.434L619.409 550.701C618.689 551.968 617.912 553.205 617.106 554.415C616.761 554.933 616.416 555.451 616.042 555.94L615.437 556.775C615.121 557.207 614.804 557.61 614.459 558.013C614.225 558.323 613.975 558.621 613.711 558.905C613.337 559.395 612.905 559.855 612.502 560.316C612.099 560.777 610.977 561.928 610.2 562.677L608.876 563.886C606.499 565.991 603.881 567.808 601.077 569.298C599.808 569.968 598.502 570.564 597.164 571.083L596.559 571.284C593.54 572.439 590.371 573.156 587.149 573.415C582.228 573.818 575.321 574.278 567.005 574.797C540.501 576.437 500.413 578.424 470.341 579.834C449.765 580.842 433.908 581.562 430.225 581.706C431.202 581.57 432.165 581.348 433.103 581.044H433.275C439.203 579.143 449.621 572.666 450.542 550.298C451.491 523.496 426.369 515.752 419.088 514.198L418.253 514.025L417.189 513.823L417.822 513.622C419.721 513.075 425.793 511.261 432.211 509.39C435.088 508.526 438.139 507.663 440.844 506.914C443.549 506.166 446.455 505.36 448.384 504.899C450.312 504.438 455.549 503.028 461.679 501.329L463.089 500.955C478.024 496.838 498.859 490.966 504.356 489.44L505.737 489.037C505.668 488.928 505.61 488.812 505.565 488.691C505.404 488.386 505.269 488.069 505.162 487.741C504.979 487.263 504.882 486.756 504.874 486.244C504.858 486.034 504.858 485.822 504.874 485.611C504.92 485.39 504.998 485.177 505.104 484.978C505.134 484.865 505.183 484.758 505.248 484.661C505.735 483.938 506.426 483.376 507.234 483.049L507.723 482.876H508.011H508.615L507.752 481.667L506.083 479.393L497.881 468.05C489.478 456.535 477.247 439.608 465.592 423.659L460.7 417.009L459.923 415.944C446.916 398.182 435.606 382.895 432.498 379.268L432.067 378.75C423.203 367.781 396.785 318.151 434.57 295.984C461.276 280.295 478.312 283.605 492.471 295.408C499.016 301.217 504.885 307.745 509.968 314.869C522.428 331.422 562.861 391.186 592.3 438.658C600.674 452.159 608.185 464.567 613.883 474.787C614.919 476.629 615.869 478.385 616.761 480.055C619.174 484.363 621.364 488.793 623.322 493.326C624.411 495.961 625.296 498.675 625.97 501.444C627.687 508.397 628.289 515.578 627.754 522.719Z" fill="#55557C"/>
<path d="M498.054 467.762C489.651 456.247 477.42 439.32 465.765 423.371C462.715 415.598 468.154 413.957 474.399 421.759C480.643 429.56 497.91 455.441 501.392 461.17C504.874 466.899 503.982 473.405 498.054 467.762Z" fill="#6E6E99"/>
<path d="M574.947 505.014C574.112 504.179 562.083 487.885 532.788 486.273C523.676 485.738 514.534 486.533 505.651 488.634C503.032 483.509 508.759 482.588 508.759 482.588C508.759 482.588 507.866 481.321 506.226 479.105C510.341 453.512 543.637 445.595 556.702 462.379C541.248 462.12 520.903 468.655 510.456 481.321C541.939 467.964 563.522 472.973 569.22 487.741C574.918 502.509 575.782 505.849 574.947 505.014Z" fill="#484870"/>
<path d="M315.863 571.86C315.565 571.859 315.274 571.768 315.028 571.601L276.61 544.655C276.427 544.561 276.266 544.429 276.139 544.267C276.011 544.106 275.92 543.919 275.871 543.719C275.822 543.519 275.816 543.311 275.854 543.109C275.892 542.907 275.973 542.715 276.091 542.547C276.21 542.379 276.363 542.238 276.54 542.134C276.718 542.029 276.915 541.965 277.12 541.943C277.325 541.922 277.531 541.945 277.726 542.011C277.921 542.076 278.1 542.183 278.25 542.323L316.697 569.24C317.005 569.465 317.214 569.802 317.278 570.178C317.343 570.554 317.258 570.941 317.043 571.255C316.91 571.445 316.734 571.6 316.528 571.705C316.322 571.811 316.094 571.864 315.863 571.86Z" fill="#D4DEE8"/>
<path d="M181.299 341.872C186.191 331.307 187.054 325.002 191.342 326.586C195.63 328.169 196.321 335.625 192.177 346.047C189.809 351.233 188.695 356.903 188.925 362.6L171.083 376.994L148.982 375.382C148.982 375.382 156.752 341.412 156.895 340.059C157.039 338.706 179.716 317.805 179.716 317.805L185.011 318.352L181.299 341.872Z" fill="#D4DEE8"/>
<path d="M171.083 247.073L199.256 374.921C199.286 375.111 199.286 375.306 199.256 375.496L183.486 378.951C183.389 378.791 183.321 378.616 183.284 378.433L155.169 250.585C155.013 249.849 155.152 249.081 155.556 248.446C155.959 247.812 156.595 247.36 157.327 247.188L167.716 244.914C168.447 244.767 169.207 244.91 169.835 245.313C170.464 245.715 170.911 246.347 171.083 247.073Z" fill="#FFAC0C"/>
<path d="M163.538 245.806L160.73 246.435L190.044 377.52L192.853 376.891L163.538 245.806Z" fill="#55557C"/>
<path d="M199.314 375.497C199.326 375.708 199.326 375.919 199.314 376.13L196.436 388.279C196.301 388.792 196.027 389.257 195.644 389.624C195.261 389.991 194.785 390.245 194.267 390.358C193.749 390.472 193.21 390.439 192.709 390.265C192.208 390.092 191.765 389.783 191.428 389.373L183.802 379.527C183.669 379.352 183.563 379.158 183.486 378.951L199.314 375.497Z" fill="white"/>
<path d="M184.436 324.887C181.112 323.192 177.91 321.268 174.853 319.13C174.853 319.13 176.81 327.018 174.018 330.904C171.227 334.79 158.421 352.236 158.421 352.236L158.047 360.872C157.886 364.7 159.123 368.456 161.527 371.438C163.931 374.421 167.338 376.426 171.112 377.08L172.09 391.848C170.881 396.217 168.351 400.105 164.849 402.98C161.346 405.856 157.04 407.578 152.521 407.912C126.334 410.158 120.29 388.336 120.204 384.507C119.649 380.914 118.88 377.357 117.902 373.856C115.513 364.097 112.146 350.825 112.607 346.622C113.24 340.231 119.83 338.36 119.83 337.986C119.83 337.612 118.362 326.471 121.125 321.26C123.888 316.049 136.003 310.493 136.003 310.493C136.003 310.493 136.348 302.951 139.6 301.483C142.852 300.014 146.766 297.596 146.766 297.596C148.497 295.714 150.427 294.025 152.521 292.558C154.227 291.289 156.193 290.414 158.277 289.996C163.745 289.046 180.177 302.519 186.767 311.069C193.357 319.619 188.781 326.931 184.436 324.887Z" fill="white"/>
<path d="M157.212 295.293C152.406 297.452 153.298 299.957 151.456 301.511C149.615 303.066 144.406 303.67 142.823 305.254C141.24 306.837 141.01 314.523 138.132 314.811C135.565 315.257 133.115 316.223 130.933 317.648C128.751 319.074 126.882 320.93 125.441 323.102C121.815 328.601 124.78 338.072 125.441 340.577C126.103 343.081 120.377 343.283 118.132 345.787C115.887 348.292 118.42 359.03 120.29 365.219C122.161 371.409 120.779 375.957 117.988 373.856C115.599 364.096 112.232 350.825 112.693 346.622C113.326 340.231 119.916 338.36 119.916 337.986C119.916 337.611 118.448 326.47 121.211 321.26C123.974 316.049 136.089 310.493 136.089 310.493C136.089 310.493 136.434 302.951 139.686 301.482C142.938 300.014 146.766 297.596 146.766 297.596C148.497 295.714 150.426 294.025 152.521 292.558C158.277 288.902 162.018 293.134 157.212 295.293Z" fill="white"/>
<path d="M130.938 345.096C126.305 357.763 157.039 400.571 171.227 377.109C185.414 353.646 159.054 351.89 157.787 353.531C156.521 355.172 154.91 359.289 150.19 359.058C145.471 358.828 136.003 350.134 136.003 350.134L130.938 345.096Z" fill="#D4DEE8"/>
<path d="M174.853 320.655C174.651 320.653 174.452 320.608 174.268 320.524C174.085 320.439 173.921 320.318 173.788 320.166C168.821 314.415 162.691 309.783 155.802 306.578C155.447 306.437 155.163 306.16 155.012 305.809C154.861 305.458 154.855 305.062 154.996 304.707C155.137 304.352 155.414 304.067 155.765 303.916C156.115 303.765 156.512 303.759 156.867 303.901C164.199 307.236 170.705 312.151 175.917 318.295C176.113 318.497 176.243 318.753 176.292 319.03C176.34 319.307 176.305 319.592 176.191 319.849C176.076 320.105 175.888 320.322 175.649 320.471C175.411 320.62 175.134 320.694 174.853 320.684V320.655Z" fill="#D4DEE8"/>
<path d="M168.982 339.368C168.742 339.365 168.506 339.303 168.295 339.187C168.084 339.072 167.905 338.906 167.773 338.706C160.694 327.91 145.73 319.245 145.586 319.158C145.402 319.075 145.238 318.955 145.104 318.805C144.97 318.654 144.869 318.477 144.808 318.286C144.747 318.094 144.726 317.891 144.748 317.691C144.77 317.491 144.833 317.297 144.934 317.123C145.036 316.949 145.172 316.798 145.335 316.68C145.498 316.562 145.685 316.48 145.882 316.438C146.079 316.397 146.282 316.397 146.479 316.439C146.676 316.481 146.862 316.564 147.025 316.683C147.658 317.028 162.737 325.751 170.047 337.151C170.255 337.468 170.329 337.855 170.254 338.227C170.178 338.599 169.959 338.926 169.644 339.137C169.442 339.261 169.216 339.339 168.982 339.368Z" fill="#D4DEE8"/>
<path d="M150.161 359.922C147.329 359.748 144.635 358.634 142.507 356.755C136.952 352.524 127.686 344.146 127.283 343.772C127.026 343.51 126.879 343.16 126.872 342.793C126.864 342.426 126.997 342.07 127.244 341.798C127.49 341.526 127.831 341.358 128.196 341.329C128.562 341.3 128.925 341.412 129.211 341.642C129.211 341.642 138.794 350.278 144.262 354.481C145.176 355.346 146.259 356.012 147.442 356.438C148.626 356.864 149.885 357.041 151.14 356.957C152.459 356.516 153.675 355.811 154.714 354.886C155.752 353.96 156.593 352.833 157.183 351.574C157.385 351.25 157.706 351.017 158.077 350.926C158.447 350.835 158.839 350.891 159.169 351.084C159.493 351.287 159.725 351.607 159.816 351.978C159.907 352.349 159.851 352.741 159.658 353.071C158.871 354.682 157.751 356.109 156.372 357.255C154.993 358.402 153.386 359.242 151.658 359.721C151.166 359.831 150.665 359.899 150.161 359.922Z" fill="#D4DEE8"/>
<path d="M160.636 350.768C160.389 350.764 160.147 350.699 159.931 350.578C159.715 350.457 159.532 350.285 159.399 350.077C153.96 341.152 136.866 332.372 136.694 332.286C136.355 332.113 136.098 331.813 135.979 331.452C135.861 331.091 135.89 330.697 136.06 330.357C136.238 330.023 136.538 329.771 136.897 329.653C137.257 329.535 137.647 329.56 137.989 329.724C138.737 330.098 155.975 338.936 161.845 348.58C161.945 348.738 162.012 348.915 162.043 349.099C162.074 349.284 162.068 349.473 162.025 349.655C161.982 349.837 161.903 350.009 161.793 350.161C161.684 350.312 161.545 350.44 161.385 350.537C161.161 350.682 160.902 350.761 160.636 350.768Z" fill="#D4DEE8"/>
<path d="M556.702 494.593C556.493 494.633 556.278 494.633 556.069 494.593C555.81 494.449 530.169 481.609 506.341 490.476C505.983 490.606 505.587 490.588 505.242 490.426C504.897 490.264 504.63 489.971 504.5 489.612C504.369 489.257 504.383 488.865 504.539 488.52C504.695 488.175 504.981 487.906 505.334 487.77C530.342 478.471 556.271 491.455 557.364 492.031C557.703 492.203 557.96 492.503 558.078 492.864C558.197 493.226 558.168 493.62 557.997 493.959C557.854 494.168 557.66 494.335 557.433 494.446C557.206 494.557 556.954 494.608 556.702 494.593Z" fill="#3E3C61"/>
<path d="M508.759 483.999C508.461 483.997 508.171 483.907 507.924 483.74C507.771 483.628 507.641 483.488 507.542 483.326C507.443 483.165 507.377 482.985 507.348 482.798C507.318 482.611 507.326 482.419 507.371 482.235C507.415 482.051 507.496 481.877 507.608 481.725C519.263 465.834 532.357 466.697 532.932 466.755C533.117 466.769 533.298 466.82 533.464 466.905C533.629 466.99 533.777 467.106 533.897 467.248C534.017 467.39 534.108 467.554 534.165 467.731C534.222 467.908 534.243 468.095 534.227 468.281C534.191 468.655 534.012 469 533.728 469.247C533.445 469.493 533.077 469.621 532.702 469.605C532.213 469.605 520.586 468.914 509.939 483.423C509.8 483.604 509.622 483.75 509.417 483.85C509.212 483.95 508.987 484.001 508.759 483.999Z" fill="#3E3C61"/>
<path d="M460.038 416.98C459.877 417.01 459.711 417.01 459.549 416.98L433.649 407.134C433.296 406.999 433.01 406.73 432.854 406.385C432.698 406.04 432.684 405.647 432.815 405.292C432.879 405.115 432.978 404.952 433.105 404.813C433.233 404.675 433.388 404.563 433.559 404.485C433.731 404.408 433.917 404.365 434.105 404.36C434.294 404.355 434.481 404.388 434.657 404.457L455.204 412.23C446.916 402.528 428.124 378.318 423.261 353.416C417.074 321.548 424.987 312.94 425.304 312.566C425.578 312.3 425.944 312.152 426.326 312.152C426.707 312.152 427.073 312.3 427.347 312.566C427.482 312.7 427.589 312.859 427.662 313.034C427.735 313.21 427.773 313.398 427.773 313.588C427.773 313.778 427.735 313.966 427.662 314.141C427.589 314.317 427.482 314.476 427.347 314.61C427.347 314.61 420.21 322.872 426.052 352.898C432.038 383.586 460.873 414.389 461.19 414.677C461.377 414.886 461.5 415.145 461.545 415.423C461.59 415.7 461.554 415.984 461.442 416.242C461.329 416.5 461.146 416.72 460.912 416.876C460.679 417.032 460.406 417.118 460.125 417.124L460.038 416.98Z" fill="#3E3C61"/>
<path d="M149.068 422.249C145.294 422.251 141.543 421.648 137.96 420.464C121.067 414.706 113.067 398.095 112.751 397.433C112.644 397.26 112.575 397.067 112.548 396.865C112.522 396.664 112.538 396.459 112.596 396.265C112.654 396.07 112.753 395.89 112.886 395.736C113.018 395.582 113.182 395.458 113.366 395.372C113.55 395.286 113.75 395.24 113.953 395.237C114.157 395.234 114.358 395.274 114.545 395.355C114.731 395.435 114.898 395.554 115.036 395.704C115.173 395.854 115.277 396.031 115.341 396.224C115.341 396.368 123.197 412.576 138.909 417.786C148.406 420.953 159.054 419.514 170.219 413.497C170.383 413.406 170.564 413.349 170.75 413.329C170.936 413.309 171.125 413.327 171.304 413.38C171.484 413.434 171.651 413.523 171.796 413.642C171.94 413.761 172.06 413.907 172.148 414.073C172.239 414.239 172.296 414.422 172.317 414.61C172.337 414.799 172.32 414.989 172.266 415.171C172.213 415.353 172.124 415.523 172.005 415.67C171.886 415.818 171.739 415.94 171.572 416.03C164.696 419.923 156.966 422.059 149.068 422.249Z" fill="#3E3C61"/>
<path d="M463.089 579.115C462.8 579.113 462.519 579.022 462.283 578.856C462.125 578.749 461.99 578.612 461.886 578.452C461.781 578.292 461.71 578.114 461.675 577.926C461.64 577.739 461.643 577.546 461.683 577.36C461.723 577.173 461.8 576.997 461.909 576.84C472.096 561.899 472.183 537.372 462.139 522.143C459.297 517.431 455.028 513.748 449.952 511.625C444.877 509.503 439.257 509.053 433.909 510.34C433.531 510.408 433.142 510.325 432.825 510.11C432.508 509.895 432.287 509.564 432.211 509.188C432.173 509.003 432.172 508.812 432.208 508.627C432.244 508.441 432.316 508.264 432.42 508.107C432.524 507.949 432.659 507.813 432.815 507.707C432.972 507.602 433.148 507.528 433.333 507.49C439.246 506.096 445.449 506.609 451.052 508.957C456.656 511.305 461.373 515.366 464.528 520.56C475.176 536.623 475.06 562.59 464.269 578.453C464.143 578.653 463.97 578.819 463.763 578.934C463.557 579.05 463.325 579.112 463.089 579.115Z" fill="#3E3C61"/>
<path d="M205.414 607.298H202.191C202.189 606.995 202.291 606.7 202.479 606.463C206.45 600.936 219.372 579.575 218.451 535.99C218.447 535.801 218.48 535.613 218.549 535.437C218.618 535.261 218.721 535.1 218.852 534.964C218.983 534.827 219.139 534.718 219.312 534.642C219.485 534.566 219.672 534.526 219.861 534.522C220.052 534.51 220.243 534.538 220.423 534.603C220.602 534.669 220.766 534.772 220.904 534.904C221.042 535.037 221.151 535.197 221.224 535.374C221.297 535.551 221.333 535.741 221.328 535.932C222.249 578.51 210.076 600.619 205.414 607.298Z" fill="#3E3C61"/>
<path d="M283.546 163.962H283.172C279.977 163.127 272.466 160.853 272.063 157.427C272.209 154.272 273.359 151.246 275.344 148.791L276.812 146.344C278.797 142.889 278.941 138.398 277.387 128.61C277.33 128.229 277.427 127.84 277.656 127.529C277.885 127.219 278.229 127.012 278.61 126.955C278.992 126.898 279.381 126.994 279.691 127.224C280.001 127.453 280.208 127.797 280.265 128.178C281.963 138.715 281.733 143.638 279.373 147.783C278.884 148.647 278.366 149.482 277.876 150.288C276.317 152.226 275.322 154.557 274.999 157.024C275.258 157.974 279.603 159.903 283.948 161.083C284.33 161.129 284.678 161.325 284.915 161.627C285.153 161.929 285.261 162.314 285.215 162.695C285.169 163.077 284.973 163.425 284.671 163.663C284.369 163.9 283.985 164.008 283.603 163.962H283.546Z" fill="#D4DEE8"/>
<path d="M318.737 145.057C320.96 144.963 322.623 141.616 322.452 137.581C322.281 133.546 320.34 130.352 318.117 130.446C315.894 130.541 314.23 133.888 314.401 137.923C314.573 141.957 316.514 145.152 318.737 145.057Z" fill="#3E3C61"/>
<path d="M251.205 147.947C253.429 147.853 255.092 144.505 254.921 140.471C254.75 136.436 252.809 133.242 250.586 133.336C248.363 133.43 246.699 136.778 246.87 140.812C247.041 144.847 248.982 148.042 251.205 147.947Z" fill="#3E3C61"/>
<path d="M332.323 115.425C322.793 114.61 313.202 114.832 303.719 116.087C303.639 116.102 303.558 116.095 303.482 116.068C303.406 116.042 303.338 115.995 303.286 115.934C303.233 115.873 303.198 115.799 303.183 115.72C303.168 115.641 303.174 115.559 303.201 115.483C303.64 113.592 304.668 111.89 306.137 110.623C307.606 109.355 309.44 108.587 311.373 108.43C315.159 107.893 319.015 108.162 322.69 109.219C326.364 110.275 329.775 112.096 332.698 114.562C332.78 114.629 332.838 114.721 332.863 114.825C332.888 114.928 332.879 115.037 332.836 115.135C332.794 115.232 332.721 115.313 332.629 115.366C332.536 115.418 332.429 115.439 332.323 115.425Z" fill="#3E3C61"/>
<path d="M312.093 177.089C312.093 177.089 303.46 191.829 295.373 192.692H295.057C287.258 193.21 281.042 183.048 281.042 183.048L300.208 179.363L312.093 177.089Z" fill="#613C88"/>
<path d="M362.079 156.39C361.71 156.384 361.356 156.238 361.089 155.982C360.823 155.725 360.662 155.378 360.641 155.009C360.353 148.215 364.468 136.412 371.921 132.583C372.089 132.494 372.272 132.44 372.461 132.424C372.65 132.408 372.84 132.431 373.02 132.49C373.2 132.549 373.366 132.644 373.509 132.768C373.651 132.893 373.767 133.045 373.85 133.216C374.022 133.553 374.056 133.943 373.943 134.304C373.83 134.665 373.579 134.967 373.245 135.145C366.914 138.398 363.259 148.992 363.518 154.865C363.53 155.054 363.504 155.243 363.443 155.422C363.381 155.602 363.284 155.767 363.159 155.909C363.033 156.05 362.881 156.166 362.71 156.249C362.54 156.331 362.355 156.379 362.166 156.39H362.079Z" fill="#D4DEE8"/>
<path d="M363.777 146.948C363.396 146.979 363.018 146.856 362.726 146.608C362.435 146.36 362.254 146.006 362.223 145.624C362.193 145.242 362.315 144.864 362.563 144.572C362.812 144.281 363.166 144.1 363.547 144.069L371.72 142.774C372.102 142.717 372.49 142.813 372.801 143.043C373.111 143.272 373.317 143.616 373.375 143.997C373.432 144.379 373.335 144.768 373.106 145.078C372.876 145.389 372.533 145.595 372.152 145.653L364.008 146.948H363.777Z" fill="#D4DEE8"/>
<path d="M343.317 133.417C343.317 132.669 343.317 131.949 343.058 131.23C342.885 130.186 342.605 129.164 342.223 128.178C340.805 124.281 337.925 121.091 334.194 119.282C332.116 118.241 329.91 117.477 327.633 117.008C323.482 116.206 319.243 115.964 315.028 116.289C300.64 117.21 292.006 122.449 289.646 130.999C289.186 132.882 289.002 134.821 289.1 136.757C289.315 140.992 290.372 145.141 292.208 148.963C292.701 149.964 293.268 150.926 293.906 151.842C294.597 152.868 295.377 153.831 296.237 154.721C298.712 157.237 301.692 159.199 304.981 160.48C308.269 161.76 311.792 162.328 315.316 162.148H317.877C321.536 162.131 325.152 161.355 328.495 159.868C331.839 158.381 334.838 156.217 337.302 153.511C337.691 153.081 338.056 152.629 338.396 152.158L338.626 151.813C339.288 150.903 339.875 149.94 340.381 148.934C342.704 144.109 343.716 138.758 343.317 133.417ZM337.129 149.078C336.813 149.625 336.468 150.114 336.122 150.604C335.771 151.082 335.387 151.534 334.971 151.957C334.872 152.129 334.745 152.285 334.597 152.418C330.099 156.869 324.032 159.372 317.705 159.384C309.388 159.902 302.884 157.743 298.366 152.965C298.078 152.648 297.762 152.302 297.503 151.957C296.799 151.124 296.172 150.228 295.632 149.28C295.619 149.248 295.612 149.213 295.612 149.179C295.612 149.144 295.619 149.11 295.632 149.078C293.49 145.255 292.259 140.99 292.035 136.613C291.172 122.766 306.251 119.743 315.287 119.167C316.496 119.167 317.676 119.167 318.798 119.167C321.699 119.137 324.594 119.426 327.431 120.031C329.359 120.428 331.227 121.076 332.986 121.96C334.628 122.742 336.091 123.857 337.28 125.235C338.469 126.613 339.358 128.223 339.892 129.963C340.243 131.153 340.455 132.38 340.525 133.619C340.968 138.996 339.785 144.382 337.129 149.078Z" fill="#222244"/>
<path d="M273.185 141.363C272.552 141.939 271.919 142.457 271.286 142.975L270.653 143.494C270.504 144.797 270.254 146.087 269.905 147.351C269.782 147.938 269.618 148.515 269.416 149.079H272.466C272.466 148.589 272.725 148.071 272.84 147.582C273.386 145.406 273.676 143.174 273.703 140.932L273.185 141.363ZM273.675 137.765C273.631 136.796 273.506 135.833 273.301 134.886C273.095 133.897 272.787 132.932 272.38 132.007C271.224 129.109 269.217 126.63 266.624 124.897C265.975 124.434 265.292 124.02 264.581 123.659C258.789 121.065 252.422 120.023 246.106 120.636H245.415C235.084 121.269 227.544 124.206 223.371 129.042C223.154 129.26 222.961 129.501 222.796 129.762C221.301 131.695 220.311 133.971 219.918 136.383C219.594 137.944 219.487 139.543 219.602 141.133C219.763 143.829 220.246 146.497 221.04 149.079C221.322 150.064 221.678 151.026 222.105 151.957C222.733 153.473 223.514 154.92 224.436 156.276C225.829 158.379 227.571 160.229 229.587 161.745C234.26 165.177 239.936 166.968 245.732 166.841H248.235C260.955 166.035 268.092 159.903 271.43 152.188C271.804 151.238 272.149 150.288 272.466 149.309C272.466 148.819 272.725 148.301 272.84 147.812C273.386 145.636 273.676 143.405 273.703 141.162C273.703 140.845 273.703 140.557 273.703 140.241C273.732 139.233 273.732 138.485 273.675 137.765ZM269.416 149.079C269.089 150.064 268.695 151.026 268.236 151.957C265.358 157.715 259.602 163.012 248.091 163.732C239.142 164.279 233.3 161.717 229.472 157.974C227.681 156.225 226.219 154.167 225.156 151.9C224.685 150.97 224.281 150.008 223.947 149.021C223.044 146.409 222.493 143.689 222.307 140.932C222.263 140.28 222.263 139.626 222.307 138.974C222.357 137.589 222.619 136.22 223.084 134.915C224.464 131.414 227.16 128.592 230.595 127.056C232.752 125.983 235.033 125.18 237.386 124.666C240.039 124.09 242.733 123.724 245.444 123.572C246.653 123.572 247.804 123.572 248.955 123.572C252.656 123.498 256.345 124.003 259.89 125.069C261.004 125.396 262.083 125.83 263.113 126.365C265.349 127.412 267.25 129.059 268.607 131.122C269.963 133.185 270.721 135.584 270.797 138.053C270.96 139.901 270.96 141.76 270.797 143.609C270.648 144.912 270.398 146.202 270.049 147.466C269.874 148.017 269.662 148.556 269.416 149.079ZM273.185 141.363C272.552 141.939 271.919 142.457 271.286 142.975L270.653 143.494C270.504 144.797 270.254 146.087 269.905 147.351C269.782 147.938 269.618 148.515 269.416 149.079H272.466C272.466 148.589 272.725 148.071 272.84 147.582C273.386 145.406 273.676 143.174 273.703 140.932L273.185 141.363Z" fill="#222244"/>
<path d="M271.718 135.951C271.434 135.961 271.153 135.885 270.913 135.732C270.672 135.58 270.484 135.358 270.372 135.097C270.26 134.835 270.229 134.546 270.285 134.267C270.34 133.988 270.478 133.732 270.682 133.533C274.164 129.79 282.999 124.695 291.287 132.295C291.544 132.557 291.691 132.907 291.698 133.274C291.705 133.641 291.572 133.997 291.326 134.269C291.08 134.541 290.739 134.709 290.373 134.738C290.008 134.767 289.645 134.655 289.358 134.425C281.099 126.854 273.099 135.145 272.783 135.519C272.498 135.796 272.115 135.951 271.718 135.951Z" fill="#222244"/>
<path d="M357.13 133.417H356.842L340.899 130.884C340.713 130.856 340.534 130.791 340.373 130.693C340.212 130.595 340.073 130.466 339.963 130.313C339.853 130.16 339.775 129.986 339.733 129.803C339.691 129.619 339.686 129.429 339.719 129.243C339.747 129.056 339.812 128.876 339.91 128.714C340.007 128.552 340.136 128.41 340.289 128.298C340.441 128.186 340.614 128.105 340.798 128.059C340.982 128.014 341.172 128.005 341.36 128.034L357.302 130.567C357.684 130.598 358.038 130.779 358.286 131.07C358.534 131.362 358.657 131.74 358.626 132.122C358.596 132.504 358.415 132.858 358.123 133.106C357.832 133.354 357.454 133.477 357.072 133.446L357.13 133.417Z" fill="#222244"/>
<path d="M313.676 316.74C311.172 318.496 308.755 320.31 306.452 322.124C310.136 310.781 316.294 299.554 326.424 292.299C354.425 272.148 354.971 214.168 350.856 203.92C349.649 198.812 348.869 193.612 348.525 188.374C353.007 190.416 357.261 192.924 361.216 195.859C380.699 235.069 348.007 292.501 313.676 316.74Z" fill="#3E3C61"/>
<path d="M418.944 514.198C418.562 514.247 418.177 514.143 417.872 513.908C417.567 513.673 417.368 513.327 417.318 512.945C417.268 512.563 417.372 512.178 417.607 511.873C417.842 511.568 418.188 511.368 418.57 511.319L461.42 499.803C461.801 499.704 462.207 499.761 462.547 499.96C462.887 500.16 463.133 500.487 463.233 500.869C463.332 501.25 463.275 501.656 463.076 501.996C462.876 502.336 462.549 502.583 462.168 502.682L419.318 514.198H418.944Z" fill="#3E3C61"/>
<path d="M78.8505 533.025L77.0087 532.19C76.6588 532.046 76.3219 531.873 76.0015 531.672L75.282 531.326C74.1022 530.664 72.9511 529.973 71.8287 529.196C73.2964 530.088 74.7065 530.923 76.059 531.643C77.4116 532.363 77.9296 532.622 78.8505 533.025Z" fill="#484870"/>
<path d="M90.5056 529.945C83.2824 527.728 64.1453 520.848 57.2675 501.157C56.2116 497.87 55.8874 494.391 56.3178 490.966C81.9299 491.513 104.578 512.096 107.398 533.399C102.526 535.186 97.3627 536.045 92.1747 535.933C95.9158 534.983 94.9661 531.326 90.5056 529.945Z" fill="#484870"/>
<path d="M597.02 571.083C594.006 564.407 592.456 557.162 592.473 549.837C592.453 539.224 595.663 528.857 601.678 520.114C607.693 511.372 616.226 504.669 626.143 500.897C632.877 528.16 620.876 561.87 597.02 571.083Z" fill="#484870"/>
<path d="M92.0882 535.933C87.5719 535.807 83.1199 534.831 78.9656 533.054H78.793C77.8721 532.651 76.9224 532.161 75.9152 531.614C74.908 531.067 73.0374 530.06 71.6849 529.167H71.5122C68.7554 527.243 66.2174 525.023 63.9437 522.546L62.4185 520.819L62.2459 520.617C61.7279 519.984 61.2099 519.351 60.7206 518.689C59.6834 517.373 58.7225 515.998 57.8429 514.572C57.4976 514.054 57.181 513.536 56.8932 513.017C56.5767 512.499 56.2889 511.952 56.0011 511.434C54.9023 509.33 53.941 507.157 53.1234 504.928C52.8931 504.391 52.6917 503.844 52.519 503.287C52.2025 502.452 51.9435 501.617 51.7133 500.782C51.6233 500.527 51.5465 500.268 51.483 500.005C50.7576 497.188 50.4952 494.271 50.7061 491.369H51.7133C52.1252 491.34 52.5387 491.34 52.9507 491.369C53.5838 491.369 54.2457 491.369 54.8788 491.369H56.3177C55.8873 494.794 56.2114 498.273 57.2673 501.56C58.2986 504.599 59.7001 507.5 61.4401 510.196C61.7566 510.686 62.102 511.204 62.4473 511.664C63.138 512.643 63.8574 513.564 64.5768 514.543L65.7279 515.839C66.8525 517.055 68.0438 518.209 69.2964 519.293C69.6992 519.667 70.1309 520.013 70.5338 520.33L71.7712 521.308L73.0374 522.23C73.4691 522.546 73.872 522.834 74.3037 523.093L74.9943 523.554L76.6634 524.59L79.0232 525.886L80.9801 526.893C84.0603 528.354 87.244 529.586 90.5054 530.578C94.966 531.327 95.8868 534.983 92.0882 535.933Z" fill="#55557C"/>
<path d="M79.0519 533.111C83.2061 534.888 87.6582 535.865 92.1745 535.99C89.8722 536.566 85.7571 535.99 79.5699 533.399L79.0519 533.111Z" fill="#6E6E99"/>
<path d="M107.398 404.832C103.311 410.589 93.6134 426.164 85.3255 435.98C78.3038 444.3 58.2458 471.015 56.3177 490.966C54.4454 490.909 52.5713 490.967 50.7061 491.138C52.0874 469.49 73.7281 439.061 82.1312 428.812C88.491 421.183 95.6566 406.933 103.139 398.153C103.335 397.91 103.547 397.679 103.772 397.462C109.355 391.589 111.312 399.362 107.398 404.832Z" fill="#6E6E99"/>
<path d="M312.093 177.089C312.093 177.089 303.46 191.829 295.373 192.692H295.056C294.94 191.979 294.882 191.256 294.884 190.533C294.885 188.392 295.364 186.279 296.285 184.347C297.206 182.414 298.546 180.712 300.208 179.363L312.093 177.089Z" fill="#FF8497"/>
<path d="M470.945 347.313C470.715 350.192 470.485 352.898 470.283 355.69L468.47 378.318L461.046 471.39C460.755 473.981 459.471 476.359 457.464 478.024C455.457 479.688 452.883 480.509 450.283 480.314C381.692 476.698 313.438 492.131 253.07 524.907C250.802 526.192 248.125 526.55 245.599 525.906C243.072 525.262 240.893 523.666 239.516 521.452L218.71 485.381L187.342 431.115L181.587 420.953L177.385 413.67C174.709 409.063 177.903 402.154 184.666 398.556C268.356 353.137 362.972 331.755 458.053 336.777C465.535 337.18 471.406 341.987 470.945 347.313Z" fill="white"/>
<path opacity="0.52" d="M244.609 472.455C235.976 476.456 227.343 480.746 218.709 485.381L187.342 431.115C197.625 425.492 208.071 420.272 218.681 415.455C219.807 414.776 221.154 414.564 222.433 414.866C223.713 415.167 224.824 415.957 225.53 417.067L247.314 466.553C247.718 467.696 247.662 468.951 247.157 470.052C246.652 471.154 245.738 472.016 244.609 472.455Z" fill="#CED3EF"/>
<path d="M470.945 347.313C470.715 350.192 470.485 352.898 470.283 355.69C369.624 347.64 268.898 370.401 181.471 420.953L177.27 413.67C174.594 409.063 177.788 402.154 184.551 398.556C268.241 353.137 362.857 331.755 457.938 336.777C465.535 337.18 471.405 341.987 470.945 347.313Z" fill="#9E6AF3"/>
<path opacity="0.52" d="M470.283 355.691L468.47 378.318C434.438 374.414 400.078 374.307 366.022 378.001C364.615 378.284 363.153 378.03 361.923 377.289C360.693 376.549 359.784 375.376 359.374 374C358.799 369.163 358.195 364.327 357.619 359.606C394.904 354.036 432.701 352.723 470.283 355.691Z" fill="#CED3EF"/>
<path d="M470.945 347.313C470.715 350.192 470.485 352.898 470.283 355.691C432.706 352.685 394.909 353.959 357.619 359.491C356.9 353.503 356.151 347.543 355.432 341.584C389.315 336.551 423.615 334.912 457.822 336.69C465.535 337.18 471.406 341.987 470.945 347.313Z" fill="#7452F3"/>
<path d="M199.918 401.809C200.349 402.615 199.745 403.766 198.623 404.371C198.179 404.674 197.638 404.801 197.106 404.726C196.574 404.652 196.088 404.381 195.745 403.968C195.313 403.133 195.918 401.981 197.069 401.377C198.22 400.772 199.515 400.974 199.918 401.809Z" fill="white"/>
<path d="M211.227 396.195C211.63 397.001 211.026 398.153 209.846 398.7C209.402 399.017 208.851 399.147 208.313 399.061C207.774 398.975 207.291 398.679 206.968 398.239C206.537 397.404 207.17 396.281 208.321 395.706C208.773 395.389 209.331 395.263 209.874 395.355C210.418 395.446 210.904 395.748 211.227 396.195Z" fill="white"/>
<path d="M222.652 390.869C223.026 391.704 222.393 392.798 221.213 393.345C220.757 393.646 220.201 393.758 219.663 393.656C219.126 393.554 218.649 393.246 218.335 392.798C217.961 391.963 218.594 390.84 219.774 390.293C220.954 389.746 222.278 390.006 222.652 390.869Z" fill="white"/>
<path opacity="0.52" d="M303.661 486.043C288.649 491.242 273.973 497.367 259.718 504.381C258.919 504.814 257.982 504.915 257.109 504.662C256.236 504.409 255.499 503.822 255.056 503.028L213.184 419.744C212.873 418.755 212.961 417.684 213.429 416.758C213.897 415.833 214.707 415.128 215.688 414.792C233.626 405.989 252.088 398.297 270.97 391.762C271.892 391.302 272.958 391.219 273.941 391.531C274.923 391.842 275.747 392.524 276.236 393.432L305.963 481.782C306.207 482.652 306.103 483.583 305.673 484.378C305.244 485.173 304.522 485.77 303.661 486.043Z" fill="#EBEDFF"/>
<path opacity="0.52" d="M368.554 469.634C352.942 472.191 337.499 475.691 322.309 480.113C321.446 480.397 320.507 480.329 319.693 479.925C318.88 479.521 318.259 478.813 317.963 477.953C309.004 448.225 300.045 418.477 291.085 388.71C290.567 386.954 292.035 384.968 294.395 384.277C313.5 378.757 332.922 374.402 352.554 371.236C355 370.833 357.187 371.985 357.446 373.798C362.166 404.505 366.866 435.213 371.547 465.92C371.629 466.807 371.362 467.69 370.803 468.384C370.245 469.077 369.438 469.525 368.554 469.634Z" fill="#EBEDFF"/>
<path opacity="0.52" d="M435.549 464.653C419.621 464.458 403.695 465.246 387.864 467.014C386.964 467.146 386.049 466.918 385.316 466.379C384.583 465.84 384.092 465.034 383.951 464.135L372.814 371.581C372.583 369.768 374.396 368.069 376.843 367.781C396.756 365.596 416.784 364.634 436.815 364.902C439.29 364.902 441.247 366.457 441.218 368.271C440.527 399.342 439.846 430.414 439.175 461.486C439.101 462.382 438.681 463.214 438.004 463.806C437.327 464.397 436.446 464.701 435.549 464.653Z" fill="#EBEDFF"/>
<path d="M259.775 476.283C228.372 490.56 198.884 508.723 172.004 530.347C171.1 531.182 169.909 531.633 168.68 531.606C167.451 531.579 166.28 531.076 165.414 530.203L131.053 488.432C130.375 487.285 130.175 485.916 130.498 484.623C130.822 483.329 131.641 482.216 132.78 481.523C163.746 456.631 197.709 435.721 233.875 419.283C235 418.597 236.349 418.381 237.631 418.683C238.913 418.985 240.024 419.779 240.725 420.895C248.015 437.381 255.276 453.877 262.509 470.382C262.912 471.528 262.851 472.786 262.34 473.888C261.83 474.99 260.91 475.85 259.775 476.283Z" fill="#FF8497"/>
<path d="M157.96 483.509C157.737 483.507 157.518 483.454 157.318 483.355C157.119 483.255 156.945 483.111 156.809 482.934C156.58 482.628 156.482 482.244 156.536 481.866C156.59 481.489 156.792 481.148 157.097 480.919C164.579 475.42 172.32 470.065 180.119 464.999C180.442 464.801 180.828 464.735 181.198 464.815C181.569 464.896 181.893 465.116 182.105 465.431C182.313 465.748 182.387 466.135 182.312 466.507C182.236 466.879 182.017 467.206 181.702 467.417C173.932 472.426 166.248 477.752 158.68 483.222C158.471 483.383 158.222 483.483 157.96 483.509Z" fill="white"/>
<path d="M164.032 491.858C163.73 491.858 163.436 491.763 163.191 491.586C162.946 491.41 162.763 491.16 162.667 490.874C162.572 490.587 162.569 490.278 162.659 489.989C162.749 489.701 162.927 489.448 163.169 489.267C176.613 479.37 190.591 470.221 205.04 461.861C205.373 461.67 205.767 461.618 206.139 461.715C206.51 461.812 206.828 462.05 207.026 462.379C207.212 462.711 207.259 463.104 207.157 463.471C207.054 463.838 206.811 464.149 206.479 464.337C192.12 472.655 178.228 481.757 164.867 491.599C164.62 491.766 164.33 491.857 164.032 491.858Z" fill="white"/>
<path d="M170.191 500.178C169.964 500.179 169.74 500.125 169.54 500.019C169.339 499.914 169.167 499.761 169.04 499.573C168.811 499.268 168.712 498.884 168.766 498.506C168.82 498.128 169.022 497.787 169.327 497.558C189.109 482.998 210.064 470.105 231.976 459.011C232.321 458.846 232.717 458.82 233.08 458.938C233.444 459.055 233.749 459.308 233.933 459.644C234.016 459.814 234.066 459.999 234.077 460.188C234.089 460.377 234.064 460.567 234.002 460.746C233.941 460.925 233.845 461.09 233.719 461.232C233.594 461.374 233.441 461.49 233.271 461.573C211.502 472.591 190.691 485.407 171.054 499.89C170.806 500.078 170.502 500.18 170.191 500.178Z" fill="white"/>
<path d="M176.291 508.469C176.069 508.466 175.849 508.413 175.649 508.314C175.45 508.214 175.276 508.07 175.14 507.893C175.029 507.74 174.948 507.566 174.903 507.382C174.859 507.198 174.851 507.007 174.88 506.82C174.91 506.632 174.976 506.453 175.075 506.291C175.174 506.129 175.304 505.989 175.457 505.878C194.769 491.647 215.234 479.052 236.638 468.223C236.973 468.083 237.349 468.076 237.69 468.202C238.031 468.328 238.311 468.578 238.475 468.902C238.639 469.227 238.674 469.601 238.574 469.95C238.473 470.299 238.244 470.598 237.933 470.785C216.666 481.543 196.336 494.061 177.155 508.21C176.905 508.392 176.6 508.484 176.291 508.469Z" fill="white"/>
<path d="M508.557 395.965C466.313 388.759 423.273 387.451 380.67 392.078C379.263 392.352 377.805 392.09 376.581 391.344C375.357 390.599 374.455 389.424 374.051 388.048C371.595 368.069 369.159 348.081 366.741 328.083C366.425 325.492 369.274 322.987 373.13 322.555C422.167 317.237 471.705 318.748 520.327 327.046C524.212 327.708 527.004 330.414 526.515 332.977L515.55 392.395C515.053 393.765 514.054 394.895 512.757 395.558C511.459 396.22 509.958 396.366 508.557 395.965Z" fill="#0DD4FF"/>
<path d="M413.476 369.365C403.26 369.365 394.972 363.607 394.368 355.892C394.278 354.252 394.525 352.612 395.095 351.072C395.664 349.532 396.543 348.125 397.677 346.939C399.725 344.854 402.165 343.196 404.857 342.059C407.549 340.923 410.439 340.331 413.361 340.317C419.269 339.993 425.071 341.987 429.534 345.874C430.736 346.972 431.7 348.305 432.369 349.79C433.037 351.275 433.394 352.882 433.419 354.51C433.419 362.427 424.958 368.904 414.368 369.307L413.476 369.365ZM414.282 343.167H413.476C410.931 343.179 408.413 343.693 406.067 344.681C403.721 345.669 401.593 347.111 399.807 348.925C398.942 349.825 398.269 350.891 397.829 352.059C397.389 353.227 397.19 354.472 397.246 355.719C397.735 362.081 405.159 366.802 414.253 366.543C423.347 366.284 430.484 360.987 430.541 354.596C430.518 353.349 430.238 352.119 429.718 350.985C429.198 349.85 428.45 348.836 427.52 348.004C423.916 344.786 419.226 343.057 414.397 343.167H414.282Z" fill="white"/>
<path d="M467.693 338.964C460.556 338.446 453.304 338.101 446.11 337.871C445.728 337.871 445.362 337.719 445.093 337.449C444.823 337.179 444.671 336.813 444.671 336.431C444.671 336.049 444.823 335.683 445.093 335.413C445.362 335.143 445.728 334.992 446.11 334.992C453.333 335.222 460.643 335.596 467.808 336.086C468.19 336.086 468.556 336.237 468.826 336.507C469.096 336.777 469.247 337.143 469.247 337.525C469.247 337.907 469.096 338.273 468.826 338.543C468.556 338.813 468.19 338.964 467.808 338.964H467.693Z" fill="white"/>
<path d="M480.844 349.242H480.585C469.074 348.09 457.218 347.313 445.592 346.968C445.21 346.968 444.844 346.816 444.575 346.546C444.305 346.276 444.153 345.91 444.153 345.528C444.153 345.146 444.305 344.78 444.575 344.51C444.844 344.24 445.21 344.089 445.592 344.089C457.304 344.434 469.132 345.211 480.787 346.363C481.164 346.406 481.509 346.597 481.746 346.894C481.983 347.19 482.094 347.569 482.053 347.946C482.03 348.268 481.897 348.572 481.678 348.808C481.458 349.043 481.164 349.197 480.844 349.242Z" fill="white"/>
<path d="M493.219 359.721H493.046C477.276 357.734 461.391 356.468 445.448 356.007C445.259 356.003 445.073 355.962 444.9 355.886C444.727 355.811 444.57 355.701 444.439 355.565C444.308 355.429 444.205 355.268 444.137 355.092C444.068 354.916 444.034 354.728 444.038 354.539C444.06 354.157 444.228 353.798 444.506 353.536C444.784 353.273 445.152 353.128 445.535 353.128C461.449 353.618 477.564 354.855 493.392 356.871C493.773 356.894 494.13 357.067 494.384 357.353C494.637 357.639 494.767 358.015 494.744 358.396C494.721 358.778 494.548 359.135 494.262 359.389C493.976 359.643 493.601 359.772 493.219 359.749V359.721Z" fill="white"/>
<path d="M483.837 367.868C471.089 366.486 458.11 365.565 445.304 365.19C444.928 365.175 444.572 365.013 444.314 364.739C444.055 364.464 443.915 364.099 443.923 363.722C443.938 363.343 444.099 362.984 444.373 362.721C444.646 362.458 445.011 362.311 445.391 362.312C458.283 362.686 471.29 363.607 484.154 365.018C484.343 365.029 484.528 365.077 484.698 365.16C484.868 365.243 485.021 365.359 485.146 365.5C485.272 365.642 485.368 365.807 485.43 365.986C485.492 366.165 485.518 366.354 485.507 366.543C485.495 366.732 485.447 366.917 485.364 367.088C485.281 367.258 485.166 367.41 485.024 367.536C484.882 367.662 484.717 367.758 484.539 367.82C484.36 367.882 484.17 367.908 483.981 367.896L483.837 367.868Z" fill="white"/>
<path d="M495.147 378.404H494.974C478.377 376.144 461.673 374.76 444.93 374.259C444.551 374.244 444.192 374.083 443.929 373.809C443.666 373.535 443.52 373.17 443.52 372.79C443.549 372.411 443.718 372.056 443.995 371.795C444.272 371.534 444.636 371.386 445.016 371.38C461.865 371.891 478.675 373.284 495.377 375.554C495.759 375.581 496.114 375.758 496.365 376.047C496.616 376.336 496.742 376.713 496.715 377.094C496.689 377.476 496.511 377.832 496.223 378.083C495.934 378.334 495.557 378.46 495.176 378.433L495.147 378.404Z" fill="white"/>
<path d="M598.631 131.978H529.364C514.948 131.978 503.262 143.668 503.262 158.089V227.382C503.262 241.802 514.948 253.493 529.364 253.493H598.631C613.047 253.493 624.732 241.802 624.732 227.382V158.089C624.732 143.668 613.047 131.978 598.631 131.978Z" fill="#FFAC0C"/>
<path d="M576.099 177.607C577.739 179.225 579.009 181.181 579.819 183.338C580.629 185.495 580.96 187.803 580.789 190.101V211.52H570.602V206.856C568.559 210.339 564.847 212.067 559.091 212.067C556.513 212.138 553.949 211.647 551.58 210.627C549.625 209.759 547.958 208.351 546.774 206.568C545.666 204.854 545.086 202.852 545.105 200.811C545.039 199.22 545.364 197.638 546.051 196.203C546.739 194.767 547.767 193.522 549.048 192.577C552.683 190.341 556.94 189.332 561.192 189.698H569.825C569.892 188.684 569.733 187.667 569.359 186.721C568.986 185.775 568.408 184.924 567.667 184.229C565.836 182.74 563.519 181.981 561.163 182.098C559.207 182.112 557.264 182.433 555.407 183.048C553.627 183.586 551.959 184.445 550.486 185.582L546.573 177.982C548.812 176.442 551.306 175.312 553.94 174.642C556.806 173.843 559.77 173.446 562.746 173.462C567.556 173.146 572.312 174.623 576.099 177.607ZM566.832 203.517C568.243 202.619 569.292 201.254 569.796 199.659V195.83H562.314C557.854 195.83 555.638 197.298 555.638 200.235C555.618 200.879 555.757 201.518 556.043 202.096C556.329 202.673 556.753 203.171 557.278 203.545C558.606 204.419 560.18 204.843 561.767 204.755C563.573 204.827 565.361 204.377 566.918 203.459L566.832 203.517Z" fill="white"/>
<path d="M596.502 226.461H529.133V159.068H596.502V226.461ZM532.011 223.582H593.624V161.947H532.011V223.582Z" fill="white"/>
<path d="M534.803 225.021C534.803 222.684 532.909 220.79 530.572 220.79C528.236 220.79 526.342 222.684 526.342 225.021C526.342 227.359 528.236 229.253 530.572 229.253C532.909 229.253 534.803 227.359 534.803 225.021Z" fill="white"/>
<path d="M534.803 160.795C534.803 158.458 532.909 156.563 530.572 156.563C528.236 156.563 526.342 158.458 526.342 160.795C526.342 163.132 528.236 165.027 530.572 165.027C532.909 165.027 534.803 163.132 534.803 160.795Z" fill="white"/>
<path d="M567.062 156.563H558.602V165.027H567.062V156.563Z" fill="white"/>
<path d="M567.062 220.79H558.602V229.253H567.062V220.79Z" fill="white"/>
<path d="M599.293 225.021C599.293 222.684 597.399 220.79 595.063 220.79C592.727 220.79 590.833 222.684 590.833 225.021C590.833 227.359 592.727 229.253 595.063 229.253C597.399 229.253 599.293 227.359 599.293 225.021Z" fill="white"/>
<path d="M599.293 160.795C599.293 158.458 597.399 156.563 595.063 156.563C592.727 156.563 590.833 158.458 590.833 160.795C590.833 163.132 592.727 165.027 595.063 165.027C597.399 165.027 599.293 163.132 599.293 160.795Z" fill="white"/>
<path d="M599.293 188.547H590.833V197.01H599.293V188.547Z" fill="white"/>
<path d="M534.803 188.547H526.342V197.01H534.803V188.547Z" fill="white"/>
<path d="M122.391 230.03C153.574 230.03 178.853 204.743 178.853 173.548C178.853 142.354 153.574 117.066 122.391 117.066C91.2083 117.066 65.9296 142.354 65.9296 173.548C65.9296 204.743 91.2083 230.03 122.391 230.03Z" fill="#FF8497"/>
<path d="M98.477 185.064L110.88 197.471L99.6569 198.594C99.3479 198.62 99.037 198.579 98.7457 198.472C98.4545 198.366 98.19 198.197 97.9708 197.978C97.7515 197.758 97.5828 197.494 97.4764 197.202C97.37 196.911 97.3284 196.6 97.3547 196.291L98.477 185.064Z" fill="white"/>
<path d="M115.11 194.65C114.731 194.645 114.369 194.489 114.103 194.218L101.642 181.753C101.507 181.622 101.399 181.466 101.325 181.293C101.251 181.12 101.212 180.934 101.211 180.745C101.208 180.552 101.245 180.361 101.319 180.182C101.393 180.004 101.503 179.843 101.642 179.709L122.995 158.348C123.269 158.083 123.636 157.934 124.017 157.934C124.398 157.934 124.765 158.083 125.039 158.348L137.499 170.813C137.762 171.094 137.906 171.465 137.902 171.85C137.904 172.225 137.76 172.587 137.499 172.857L116.146 194.218C115.872 194.494 115.499 194.649 115.11 194.65ZM104.693 180.745L115.11 191.167L134.449 171.85L124.003 161.4L104.693 180.745Z" fill="white"/>
<path d="M128.619 163.907L107.273 185.26L110.712 188.7L132.058 167.347L128.619 163.907Z" fill="white"/>
<path d="M138.276 149.349L146.599 157.674C147.139 158.214 147.442 158.946 147.442 159.71C147.442 160.473 147.139 161.206 146.599 161.745L140.311 168.036L127.919 155.639L134.166 149.389C134.431 149.113 134.749 148.893 135.1 148.741C135.452 148.589 135.83 148.509 136.213 148.505C136.595 148.501 136.975 148.574 137.329 148.719C137.684 148.864 138.006 149.078 138.276 149.349Z" fill="white"/>
<path d="M82.1024 277.214H19.281C8.63239 277.214 0 285.85 0 296.502V359.347C0 369.999 8.63239 378.635 19.281 378.635H82.1024C92.751 378.635 101.383 369.999 101.383 359.347V296.502C101.383 285.85 92.751 277.214 82.1024 277.214Z" fill="#9E6AF3"/>
<path d="M78.5053 359.203H23.0221C21.1393 359.195 19.3357 358.443 18.0043 357.112C16.673 355.78 15.9216 353.975 15.9141 352.092V303.757C15.9216 301.873 16.673 300.069 18.0043 298.737C19.3357 297.405 21.1393 296.654 23.0221 296.646H78.5053C80.3881 296.654 82.1917 297.405 83.5231 298.737C84.8545 300.069 85.6058 301.873 85.6134 303.757V352.092C85.6058 353.975 84.8545 355.78 83.5231 357.112C82.1917 358.443 80.3881 359.195 78.5053 359.203ZM23.0221 299.525C21.9002 299.525 20.8242 299.971 20.0308 300.764C19.2375 301.558 18.7918 302.634 18.7918 303.757V352.092C18.7918 353.214 19.2375 354.291 20.0308 355.084C20.8242 355.878 21.9002 356.324 23.0221 356.324H78.5053C79.6272 356.324 80.7032 355.878 81.4966 355.084C82.2899 354.291 82.7356 353.214 82.7356 352.092V303.757C82.7356 302.634 82.2899 301.558 81.4966 300.764C80.7032 299.971 79.6272 299.525 78.5053 299.525H23.0221Z" fill="white"/>
<path d="M84.2032 310.234H17.209V313.113H84.2032V310.234Z" fill="white"/>
<path d="M75.685 306.319C76.3208 306.319 76.8361 305.803 76.8361 305.167C76.8361 304.531 76.3208 304.016 75.685 304.016C75.0493 304.016 74.5339 304.531 74.5339 305.167C74.5339 305.803 75.0493 306.319 75.685 306.319Z" fill="white"/>
<path d="M70.5914 306.319C71.2272 306.319 71.7425 305.803 71.7425 305.167C71.7425 304.531 71.2272 304.016 70.5914 304.016C69.9557 304.016 69.4403 304.531 69.4403 305.167C69.4403 305.803 69.9557 306.319 70.5914 306.319Z" fill="white"/>
<path d="M65.469 306.319C66.1047 306.319 66.6201 305.803 66.6201 305.167C66.6201 304.531 66.1047 304.016 65.469 304.016C64.8332 304.016 64.3179 304.531 64.3179 305.167C64.3179 305.803 64.8332 306.319 65.469 306.319Z" fill="white"/>
<path d="M72.4908 346.536H28.7776C28.396 346.536 28.03 346.384 27.7602 346.114C27.4903 345.844 27.3387 345.478 27.3387 345.096V323.476C27.3387 323.095 27.4903 322.729 27.7602 322.459C28.03 322.189 28.396 322.037 28.7776 322.037H72.4908C72.8724 322.037 73.2384 322.189 73.5082 322.459C73.778 322.729 73.9296 323.095 73.9296 323.476V345.096C73.9296 345.478 73.778 345.844 73.5082 346.114C73.2384 346.384 72.8724 346.536 72.4908 346.536ZM30.3316 343.657H71.0519V324.916H30.3316V343.657Z" fill="white"/>
<path d="M28.7775 346.536C28.5115 346.536 28.2505 346.464 28.0224 346.327C27.7943 346.19 27.6077 345.993 27.4826 345.759C27.3991 345.589 27.35 345.404 27.3381 345.215C27.3261 345.025 27.3517 344.836 27.4132 344.657C27.4747 344.477 27.5709 344.312 27.6964 344.17C27.8219 344.028 27.9741 343.913 28.1444 343.83L71.9439 322.296C72.2837 322.126 72.6773 322.096 73.0386 322.215C73.3999 322.334 73.6995 322.591 73.872 322.93C74.0419 323.277 74.0676 323.678 73.9437 324.045C73.8197 324.411 73.5561 324.714 73.2101 324.887L29.6121 346.507C29.3462 346.616 29.0503 346.626 28.7775 346.536Z" fill="white"/>
<path d="M72.4907 346.536C72.2834 346.592 72.0648 346.592 71.8576 346.536L28.2595 324.772C28.0895 324.689 27.9375 324.573 27.8122 324.431C27.6869 324.289 27.5907 324.124 27.5293 323.945C27.4678 323.766 27.4422 323.576 27.4539 323.387C27.4657 323.198 27.5145 323.013 27.5976 322.843C27.6808 322.673 27.7966 322.521 27.9385 322.396C28.0804 322.27 28.2456 322.174 28.4246 322.113C28.6037 322.051 28.793 322.026 28.982 322.037C29.1709 322.049 29.3557 322.098 29.5257 322.181L73.1238 343.83C73.2941 343.913 73.4463 344.028 73.5718 344.17C73.6973 344.312 73.7936 344.477 73.8551 344.657C73.9165 344.836 73.9421 345.025 73.9302 345.214C73.9183 345.404 73.8691 345.588 73.7857 345.759C73.6605 345.993 73.4739 346.19 73.2458 346.327C73.0177 346.463 72.7567 346.536 72.4907 346.536Z" fill="white"/>
</svg>
