<svg width="538" height="351" viewBox="0 0 538 351" fill="none" xmlns="http://www.w3.org/2000/svg">
<path fill-rule="evenodd" clip-rule="evenodd" d="M538 135V351H0V311C0 213.798 78.7979 135 176 135H538Z" fill="#0CD4FF"/>
<g clip-path="url(#clip0_369_2281)">
<path d="M385.837 66.021H257.523C255.905 66.0679 254.297 65.7516 252.817 65.0955C251.337 64.4394 250.022 63.46 248.97 62.2293C247.917 60.9985 247.153 59.5476 246.734 57.9829C246.315 56.4183 246.252 54.7796 246.548 53.1872L252.466 12.8337C253.05 9.32096 254.836 6.12055 257.518 3.77961C260.2 1.43867 263.611 0.102601 267.169 -0.00017283H395.482C397.1 -0.0479277 398.707 0.26797 400.187 0.924256C401.666 1.58054 402.979 2.5605 404.03 3.79195C405.08 5.02341 405.842 6.47499 406.257 8.0398C406.673 9.6046 406.732 11.2428 406.431 12.8337L400.54 53.1872C399.95 56.6978 398.163 59.8954 395.482 62.2354C392.801 64.5755 389.393 65.9133 385.837 66.021Z" fill="#8152C7"/>
<path d="M479.139 40.0666L463.628 146.207L433.7 351H102.619L108.745 309.029L110.987 293.717L114.376 270.528L115.758 261.007L115.914 259.885L117.531 248.981L119.069 238.339V237.843L120.581 227.409V227.122L122.093 216.688V216.193L123.657 205.524L124.96 196.472L126.499 186.038L130.305 159.953L132.338 146.128L147.98 39.9883C148.937 34.2173 151.868 28.958 156.271 25.1091C160.674 21.2601 166.276 19.0603 172.12 18.8855H461.151C463.818 18.805 466.469 19.3261 468.907 20.4101C471.345 21.4942 473.508 23.1134 475.236 25.1477C476.963 27.182 478.211 29.5793 478.887 32.1619C479.563 34.7445 479.649 37.4461 479.139 40.0666V40.0666Z" fill="#FF840C"/>
<path d="M468.164 40.0665L452.652 146.206L422.829 351H91.748L97.8743 309.029L100.116 293.717L103.505 270.528L104.131 266.198L104.913 260.981L108.302 237.817L109.84 227.148L111.43 216.271L112.995 205.602L114.637 193.029L115.654 186.038V185.621L119.408 159.979L121.415 146.154L137.057 40.0143C138.019 34.2454 140.951 28.9889 145.353 25.1409C149.755 21.2928 155.354 19.0913 161.197 18.9116H450.15C452.815 18.8328 455.463 19.3539 457.9 20.4363C460.337 21.5187 462.499 23.1348 464.228 25.1653C465.957 27.1958 467.209 29.589 467.89 32.1681C468.571 34.7472 468.664 37.4464 468.164 40.0665V40.0665Z" fill="#FFAC0C"/>
<path d="M439.305 49.77L424.602 146.206L393.345 351H186.119L191.646 326.871L194.618 314.037L199.284 293.717L201.657 283.387L204.602 270.554L204.628 270.528L206.792 261.006L207.053 259.885L209.582 248.981L211.667 239.904L212.006 238.339L214.613 227.07L221.652 196.42L222.043 194.751L225.041 192.742L238.779 183.586L243.498 180.43L253.665 173.648L284.713 152.936L294.776 146.206L303.927 140.102L439.305 49.77Z" fill="#FF840C"/>
<path d="M439.305 49.77L410.003 146.206L347.801 351H78.192L95.5803 293.717L102.619 270.528L103.922 266.197L105.513 261.006L105.852 259.885L109.162 248.981L112.395 238.339L112.551 237.843L115.706 227.461L115.784 227.174L118.938 216.792L119.095 216.297L122.327 205.628L122.745 204.245L125.091 196.576L126.264 192.742L136.196 160.031L140.394 146.206L169.669 49.77H439.305Z" fill="white"/>
<path d="M279.056 203.463L269.802 226.94L264.744 239.982L252.7 270.632L247.851 282.97C247.793 283.14 247.723 283.305 247.643 283.466C246.331 286.38 244.259 288.887 241.644 290.723C239.029 292.56 235.968 293.657 232.783 293.9H95.5802L102.619 270.71L105.852 260.068L109.162 249.164L112.395 238.521L115.706 227.644L118.938 216.975L126.264 192.925H272.513C273.863 192.819 275.214 193.111 276.4 193.764C277.586 194.418 278.555 195.405 279.187 196.603C279.62 197.698 279.832 198.868 279.809 200.046C279.787 201.224 279.531 202.385 279.056 203.463Z" fill="#D4DEE8"/>
<path opacity="0.5" d="M146.494 222.114C145.863 223.642 144.803 224.956 143.444 225.896C142.176 226.85 140.649 227.396 139.064 227.461H115.706L118.938 216.792H143.131C146.077 216.792 147.51 219.114 146.494 222.114Z" fill="#D4DEE8"/>
<path d="M222.095 243.66C221.454 245.176 220.397 246.479 219.045 247.416C217.782 248.379 216.252 248.926 214.665 248.981H109.162L112.395 238.339H218.758C219.376 238.294 219.994 238.416 220.548 238.691C221.103 238.966 221.574 239.385 221.912 239.904C222.229 240.474 222.41 241.109 222.441 241.761C222.473 242.412 222.354 243.062 222.095 243.66V243.66Z" fill="#D4DEE8"/>
<path d="M213.518 265.206C212.878 266.722 211.82 268.025 210.468 268.963C209.201 269.917 207.673 270.462 206.088 270.528H102.619L105.852 259.885H210.286C213.231 259.885 214.665 262.259 213.518 265.206Z" fill="#D4DEE8"/>
<path d="M272.669 109.557H185.911C185.127 109.605 184.344 109.45 183.637 109.108C182.93 108.767 182.322 108.249 181.872 107.605C181.422 106.961 181.145 106.213 181.067 105.431C180.989 104.649 181.113 103.86 181.427 103.14V103.14C181.987 101.318 183.087 99.7089 184.582 98.5258C186.076 97.3428 187.894 96.6414 189.795 96.5145H276.554C277.337 96.4669 278.12 96.6214 278.827 96.9632C279.534 97.3049 280.142 97.8225 280.592 98.4664C281.042 99.1103 281.319 99.8589 281.397 100.641C281.475 101.422 281.351 102.211 281.038 102.931V102.931C280.477 104.754 279.377 106.363 277.883 107.546C276.389 108.729 274.571 109.43 272.669 109.557Z" fill="#D4DEE8"/>
<path d="M373.115 152.91H172.693C171.912 152.953 171.132 152.795 170.429 152.452C169.726 152.108 169.122 151.59 168.675 150.947C168.228 150.304 167.953 149.557 167.876 148.777C167.799 147.998 167.923 147.212 168.236 146.493V146.493C168.828 144.708 169.942 143.142 171.434 141.998C172.926 140.854 174.727 140.185 176.604 140.077H376.999C377.783 140.029 378.566 140.183 379.273 140.525C379.98 140.867 380.587 141.384 381.037 142.028C381.487 142.672 381.764 143.421 381.842 144.203C381.921 144.984 381.797 145.773 381.483 146.493V146.493C380.888 148.277 379.773 149.841 378.281 150.985C376.79 152.128 374.99 152.799 373.115 152.91V152.91Z" fill="#D4DEE8"/>
<path d="M359.898 196.42H159.528C158.746 196.458 157.966 196.295 157.264 195.948C156.561 195.601 155.958 195.081 155.512 194.436C155.066 193.792 154.792 193.044 154.715 192.264C154.637 191.484 154.76 190.697 155.071 189.977V189.977C155.666 188.194 156.781 186.63 158.272 185.486C159.764 184.342 161.563 183.672 163.439 183.56H363.86C364.642 183.517 365.421 183.675 366.125 184.019C366.828 184.363 367.432 184.881 367.879 185.524C368.325 186.167 368.6 186.914 368.677 187.693C368.754 188.473 368.63 189.259 368.318 189.977V189.977C367.724 191.773 366.602 193.348 365.101 194.498C363.599 195.647 361.785 196.317 359.898 196.42Z" fill="#D4DEE8"/>
<path d="M346.706 239.982H146.285C145.5 240.027 144.717 239.87 144.01 239.525C143.304 239.18 142.697 238.659 142.25 238.012C141.802 237.365 141.528 236.614 141.454 235.831C141.38 235.047 141.509 234.258 141.827 233.539C142.387 231.724 143.485 230.121 144.974 228.943C146.463 227.765 148.275 227.066 150.17 226.939H350.591C351.386 226.887 352.181 227.044 352.897 227.392C353.614 227.741 354.227 228.271 354.677 228.929C355.127 229.587 355.398 230.351 355.463 231.146C355.528 231.94 355.385 232.738 355.049 233.461C354.472 235.26 353.369 236.843 351.881 238.006C350.393 239.169 348.59 239.858 346.706 239.982V239.982Z" fill="#D4DEE8"/>
<path d="M333.489 283.387H133.068C132.286 283.43 131.507 283.272 130.803 282.929C130.1 282.585 129.496 282.067 129.049 281.424C128.603 280.781 128.328 280.034 128.251 279.254C128.174 278.475 128.298 277.689 128.61 276.971V276.971C129.201 275.182 130.314 273.613 131.806 272.464C133.298 271.316 135.1 270.641 136.978 270.528H337.4C338.182 270.49 338.962 270.652 339.664 270.999C340.367 271.346 340.97 271.867 341.416 272.511C341.862 273.156 342.136 273.903 342.214 274.684C342.291 275.464 342.168 276.251 341.858 276.971V276.971C341.262 278.754 340.147 280.318 338.656 281.462C337.164 282.605 335.365 283.276 333.489 283.387V283.387Z" fill="#D4DEE8"/>
<path d="M320.272 326.871H119.877C119.095 326.912 118.317 326.752 117.613 326.408C116.91 326.065 116.306 325.548 115.858 324.906C115.41 324.264 115.132 323.519 115.05 322.74C114.969 321.962 115.087 321.175 115.393 320.454V320.454C115.987 318.668 117.101 317.1 118.592 315.952C120.083 314.804 121.883 314.128 123.761 314.011H324.182C324.967 313.966 325.751 314.124 326.457 314.469C327.164 314.814 327.77 315.335 328.218 315.982C328.665 316.628 328.939 317.379 329.013 318.163C329.087 318.946 328.959 319.735 328.64 320.454C328.045 322.238 326.93 323.802 325.439 324.945C323.947 326.089 322.148 326.76 320.272 326.871V326.871Z" fill="#D4DEE8"/>
<path d="M362.869 66.021H234.608C232.99 66.0679 231.382 65.7516 229.902 65.0955C228.422 64.4394 227.107 63.46 226.055 62.2293C225.002 60.9985 224.238 59.5476 223.819 57.9829C223.4 56.4183 223.337 54.7796 223.633 53.1872L229.551 12.8337C230.135 9.32096 231.921 6.12055 234.603 3.77961C237.285 1.43867 240.696 0.102601 244.254 -0.00017283H372.567C374.185 -0.0479277 375.792 0.26797 377.272 0.924256C378.751 1.58054 380.064 2.5605 381.115 3.79195C382.165 5.02341 382.927 6.47499 383.342 8.0398C383.758 9.6046 383.817 11.2428 383.516 12.8337L377.625 53.1872C377.038 56.7085 375.245 59.9155 372.552 62.2575C369.86 64.5995 366.436 65.9302 362.869 66.021V66.021Z" fill="#8152C7"/>
<path d="M350.069 66.0211H221.756C220.138 66.0688 218.531 65.7529 217.052 65.0966C215.572 64.4404 214.259 63.4604 213.208 62.229C212.158 60.9975 211.397 59.5459 210.981 57.9811C210.565 56.4163 210.506 54.7781 210.807 53.1872L216.698 12.8337C217.283 9.32103 219.069 6.12062 221.751 3.77968C224.433 1.43875 227.844 0.102675 231.402 -9.91539e-05H359.715C361.335 -0.0518513 362.945 0.2611 364.428 0.915643C365.91 1.57019 367.227 2.5496 368.28 3.78155C369.334 5.01351 370.098 6.46653 370.515 8.03332C370.932 9.6001 370.992 11.2406 370.69 12.8337L364.799 53.1872C364.213 56.7042 362.423 59.908 359.736 62.2494C357.049 64.5909 353.631 65.9243 350.069 66.0211Z" fill="#9E6AF3"/>
<path d="M245.036 160.031H55.251C52.2464 160.131 49.3665 161.257 47.0901 163.222C44.8136 165.186 43.2777 167.872 42.7377 170.831L25.2973 279.579C24.463 284.796 30.5111 287.405 34.7083 283.753L59.031 262.728C60.2709 261.652 61.8478 261.043 63.4889 261.007H228.873C231.887 260.907 234.778 259.78 237.063 257.811C239.349 255.842 240.893 253.149 241.438 250.181L254.108 170.831C254.385 169.501 254.357 168.125 254.025 166.808C253.693 165.491 253.067 164.266 252.194 163.226C251.32 162.186 250.222 161.358 248.982 160.805C247.742 160.252 246.393 159.987 245.036 160.031Z" fill="#CC4868"/>
<path d="M245.036 170.831L232.34 250.181C231.804 253.149 230.267 255.844 227.985 257.814C225.702 259.784 222.814 260.911 219.801 261.007H54.4167C52.7747 261.038 51.1964 261.648 49.9588 262.728L25.6361 283.753C21.3607 287.457 15.3908 284.822 16.1469 279.579L33.6133 170.831C34.1306 167.861 35.6599 165.162 37.9412 163.193C40.2225 161.225 43.1149 160.107 46.1266 160.031H235.964C237.321 159.987 238.67 160.252 239.91 160.805C241.15 161.358 242.248 162.186 243.121 163.226C243.995 164.266 244.621 165.491 244.953 166.808C245.285 168.125 245.313 169.501 245.036 170.831V170.831Z" fill="#FF8497"/>
<path opacity="0.5" d="M110.492 194.751H76.4193C75.7609 194.769 75.1067 194.64 74.5043 194.373C73.902 194.107 73.3666 193.709 72.9372 193.209C72.5077 192.71 72.1949 192.12 72.0216 191.485C71.8483 190.849 71.8189 190.182 71.9353 189.534C72.2237 188.093 72.9916 186.793 74.1138 185.845C75.236 184.898 76.646 184.359 78.1138 184.317H112.186C112.845 184.298 113.499 184.427 114.101 184.694C114.704 184.961 115.239 185.358 115.669 185.858C116.098 186.358 116.411 186.947 116.584 187.583C116.757 188.218 116.787 188.885 116.67 189.534V189.534C116.382 190.974 115.614 192.274 114.492 193.222C113.37 194.17 111.96 194.708 110.492 194.751V194.751Z" fill="white"/>
<path d="M191.151 216.297H72.9781C72.3197 216.315 71.6655 216.186 71.0632 215.919C70.4608 215.653 69.9255 215.255 69.496 214.755C69.0665 214.256 68.7538 213.667 68.5805 213.031C68.4072 212.395 68.3777 211.728 68.4942 211.08C68.7781 209.637 69.5448 208.334 70.6679 207.386C71.791 206.437 73.2035 205.9 74.6726 205.863H192.845C193.503 205.845 194.158 205.974 194.76 206.24C195.362 206.507 195.898 206.904 196.327 207.404C196.757 207.904 197.069 208.493 197.243 209.129C197.416 209.765 197.445 210.431 197.329 211.08C197.041 212.52 196.273 213.821 195.151 214.768C194.028 215.716 192.618 216.255 191.151 216.297V216.297Z" fill="white"/>
<path d="M187.709 237.817H69.5109C68.8532 237.836 68.1997 237.707 67.5982 237.441C66.9967 237.174 66.4626 236.776 66.035 236.275C65.6075 235.775 65.2973 235.185 65.1274 234.549C64.9575 233.913 64.932 233.247 65.053 232.6V232.6C65.337 231.157 66.1037 229.854 67.2268 228.906C68.3499 227.958 69.7624 227.421 71.2314 227.383H189.404C190.062 227.365 190.716 227.494 191.319 227.76C191.921 228.027 192.457 228.425 192.886 228.924C193.315 229.424 193.628 230.013 193.802 230.649C193.975 231.285 194.004 231.951 193.888 232.6C193.604 234.043 192.837 235.346 191.714 236.294C190.591 237.242 189.178 237.78 187.709 237.817V237.817Z" fill="white"/>
</g>
<defs>
<clipPath id="clip0_369_2281">
<rect width="464.869" height="351" fill="white" transform="translate(16.1469)"/>
</clipPath>
</defs>
</svg>
