<svg width="131" height="26" viewBox="0 0 131 26" fill="none" xmlns="http://www.w3.org/2000/svg">
<path d="M45.1529 21.3685C44.3179 21.3685 43.5466 21.2057 42.839 20.8802C42.1455 20.5406 41.5936 20.0594 41.1832 19.4367L41.4591 18.8847V21.1137H38.848V5.0437H41.629V11.8581L41.2044 11.2849C41.6007 10.6622 42.1385 10.181 42.8178 9.84136C43.4971 9.48755 44.2825 9.31064 45.1741 9.31064C46.2639 9.31064 47.2475 9.57954 48.1249 10.1173C49.0024 10.6551 49.6958 11.3769 50.2053 12.2826C50.729 13.1884 50.9908 14.2074 50.9908 15.3396C50.9908 16.4576 50.736 17.4766 50.2265 18.3965C49.7171 19.3164 49.0236 20.0452 48.1461 20.583C47.2687 21.1067 46.2709 21.3685 45.1529 21.3685ZM44.8345 18.821C45.4713 18.821 46.0374 18.6724 46.5328 18.3752C47.0281 18.078 47.4102 17.6676 47.6791 17.144C47.9622 16.6204 48.1037 16.0189 48.1037 15.3396C48.1037 14.6602 47.9622 14.0658 47.6791 13.5564C47.4102 13.0327 47.0281 12.6223 46.5328 12.3251C46.0374 12.0138 45.4713 11.8581 44.8345 11.8581C44.2259 11.8581 43.674 12.0067 43.1787 12.3039C42.6975 12.6011 42.3154 13.0186 42.0323 13.5564C41.7634 14.08 41.629 14.6744 41.629 15.3396C41.629 16.0189 41.7634 16.6204 42.0323 17.144C42.3154 17.6676 42.6975 18.078 43.1787 18.3752C43.674 18.6724 44.2259 18.821 44.8345 18.821Z" fill="#403F63"/>
<path d="M53.111 21.1137V9.56539H55.8919V21.1137H53.111ZM53.111 8.27044V5.29844H55.8919V8.27044H53.111Z" fill="#403F63"/>
<path d="M58.4596 21.1137V5.0437H61.2405V21.1137H58.4596Z" fill="#403F63"/>
<path d="M67.3109 21.3685C66.5042 21.3685 65.8037 21.234 65.2093 20.9651C64.6149 20.6962 64.1549 20.3141 63.8294 19.8188C63.5039 19.3093 63.3412 18.722 63.3412 18.0568C63.3412 17.42 63.4827 16.8539 63.7657 16.3585C64.0488 15.849 64.4875 15.4245 65.0819 15.0848C65.6763 14.7452 66.4264 14.5046 67.3321 14.363L71.1108 13.7474V15.8703L67.8628 16.4222C67.3109 16.5213 66.9005 16.6982 66.6316 16.9529C66.3627 17.2077 66.2282 17.5403 66.2282 17.9507C66.2282 18.3469 66.3768 18.6654 66.674 18.906C66.9854 19.1324 67.3675 19.2456 67.8204 19.2456C68.4006 19.2456 68.9101 19.1253 69.3488 18.8847C69.8017 18.63 70.1485 18.2833 70.389 17.8445C70.6438 17.4058 70.7712 16.9246 70.7712 16.401V13.429C70.7712 12.9337 70.573 12.5232 70.1768 12.1977C69.7946 11.8581 69.2852 11.6882 68.6483 11.6882C68.0539 11.6882 67.5232 11.851 67.0562 12.1765C66.6033 12.4879 66.2707 12.9054 66.0584 13.429L63.787 12.3251C64.0134 11.7166 64.3672 11.1929 64.8484 10.7542C65.3437 10.3013 65.924 9.9475 66.5891 9.69276C67.2543 9.43802 67.9761 9.31064 68.7544 9.31064C69.7027 9.31064 70.5376 9.48755 71.2594 9.84136C71.9812 10.181 72.5402 10.6622 72.9365 11.2849C73.3469 11.8935 73.5521 12.6082 73.5521 13.429V21.1137H70.9198V19.1395L71.5142 19.097C71.217 19.5924 70.8632 20.0098 70.4527 20.3495C70.0423 20.675 69.5753 20.9298 69.0516 21.1137C68.528 21.2836 67.9478 21.3685 67.3109 21.3685Z" fill="#403F63"/>
<path d="M76.1224 21.1137V5.0437H78.9034V21.1137H76.1224Z" fill="#403F63"/>
<path d="M84.9737 21.3685C84.1671 21.3685 83.4665 21.234 82.8721 20.9651C82.2777 20.6962 81.8178 20.3141 81.4923 19.8188C81.1668 19.3093 81.004 18.722 81.004 18.0568C81.004 17.42 81.1455 16.8539 81.4286 16.3585C81.7116 15.849 82.1503 15.4245 82.7447 15.0848C83.3391 14.7452 84.0892 14.5046 84.995 14.363L88.7737 13.7474V15.8703L85.5257 16.4222C84.9737 16.5213 84.5633 16.6982 84.2944 16.9529C84.0255 17.2077 83.8911 17.5403 83.8911 17.9507C83.8911 18.3469 84.0397 18.6654 84.3369 18.906C84.6482 19.1324 85.0304 19.2456 85.4832 19.2456C86.0635 19.2456 86.573 19.1253 87.0117 18.8847C87.4646 18.63 87.8113 18.2833 88.0519 17.8445C88.3066 17.4058 88.434 16.9246 88.434 16.401V13.429C88.434 12.9337 88.2359 12.5232 87.8396 12.1977C87.4575 11.8581 86.948 11.6882 86.3111 11.6882C85.7167 11.6882 85.186 11.851 84.719 12.1765C84.2661 12.4879 83.9335 12.9054 83.7213 13.429L81.4498 12.3251C81.6762 11.7166 82.03 11.1929 82.5112 10.7542C83.0066 10.3013 83.5868 9.9475 84.252 9.69276C84.9171 9.43802 85.6389 9.31064 86.4173 9.31064C87.3655 9.31064 88.2005 9.48755 88.9223 9.84136C89.644 10.181 90.2031 10.6622 90.5993 11.2849C91.0097 11.8935 91.2149 12.6082 91.2149 13.429V21.1137H88.5826V19.1395L89.177 19.097C88.8798 19.5924 88.526 20.0098 88.1156 20.3495C87.7052 20.675 87.2381 20.9298 86.7145 21.1137C86.1908 21.2836 85.6106 21.3685 84.9737 21.3685Z" fill="#403F63"/>
<path d="M93.7853 21.1137V9.56539H96.3964V12.134L96.1841 11.7519C96.453 10.8886 96.8705 10.2872 97.4366 9.9475C98.0168 9.60785 98.7103 9.43802 99.517 9.43802H100.196V11.9005H99.1986C98.406 11.9005 97.7692 12.1482 97.288 12.6435C96.8068 13.1247 96.5662 13.804 96.5662 14.6815V21.1137H93.7853Z" fill="#403F63"/>
<path d="M105.207 21.1137L100.664 9.56539H103.7L106.99 18.6512H105.865L109.176 9.56539H112.212L107.669 21.1137H105.207Z" fill="#403F63"/>
<path d="M119.019 21.3685C117.83 21.3685 116.79 21.0996 115.898 20.5618C115.007 20.024 114.313 19.2952 113.818 18.3752C113.323 17.4553 113.075 16.4364 113.075 15.3183C113.075 14.1578 113.323 13.1318 113.818 12.2402C114.327 11.3344 115.014 10.6197 115.877 10.0961C116.755 9.57246 117.731 9.31064 118.807 9.31064C119.712 9.31064 120.505 9.45924 121.184 9.75645C121.878 10.0536 122.465 10.4641 122.946 10.9877C123.427 11.5113 123.795 12.1128 124.05 12.7921C124.305 13.4573 124.432 14.1791 124.432 14.9574C124.432 15.1556 124.418 15.3608 124.39 15.5731C124.376 15.7854 124.34 15.9693 124.284 16.125H115.368V14.0022H122.713L121.397 14.9999C121.524 14.3489 121.489 13.7686 121.29 13.2592C121.106 12.7497 120.795 12.3463 120.356 12.0491C119.932 11.7519 119.415 11.6033 118.807 11.6033C118.226 11.6033 117.71 11.7519 117.257 12.0491C116.804 12.3322 116.457 12.7568 116.217 13.3228C115.99 13.8748 115.905 14.547 115.962 15.3396C115.905 16.0472 115.997 16.677 116.238 17.2289C116.493 17.7667 116.861 18.1842 117.342 18.4814C117.837 18.7786 118.403 18.9272 119.04 18.9272C119.677 18.9272 120.215 18.7927 120.654 18.5238C121.106 18.255 121.46 17.8941 121.715 17.4412L123.965 18.5451C123.739 19.097 123.385 19.5853 122.904 20.0098C122.423 20.4344 121.849 20.767 121.184 21.0076C120.533 21.2482 119.811 21.3685 119.019 21.3685Z" fill="#403F63"/>
<path d="M127.856 21.1137V18.1417H130.659V21.1137H127.856Z" fill="#403F63"/>
<g clip-path="url(#clip0_242_1684)">
<path d="M8.6821 26H22.014C23.3905 26.0066 24.744 25.6618 25.9346 25.0012C27.1252 24.3406 28.1099 23.3882 28.7869 22.2421C28.848 22.1419 28.9092 22.0375 28.9616 21.9373C29.5736 20.8256 29.8788 19.5829 29.8482 18.3269C29.8177 17.0709 29.4524 15.8432 28.7869 14.7599L23.1974 5.4989L22.1231 3.72437C21.4397 2.58536 20.4539 1.63899 19.2655 0.980868C18.077 0.322745 16.728 -0.0238037 15.3546 -0.0238037C13.9812 -0.0238037 12.6321 0.322745 11.4437 0.980868C10.2552 1.63899 9.2695 2.58536 8.58603 3.72437L1.92227 14.764C1.22963 15.9 0.863272 17.1909 0.860309 18.5059C0.857345 19.8208 1.21788 21.1132 1.9054 22.252C2.59291 23.3909 3.58298 24.3358 4.77533 24.991C5.96768 25.6462 7.31996 25.9885 8.6952 25.9832L8.6821 26ZM13.241 6.31728C13.4093 6.02612 13.6431 5.77433 13.9256 5.58009C14.208 5.38585 14.532 5.25401 14.8742 5.1941C15.2202 5.1296 15.5766 5.13687 15.9194 5.21538C16.2621 5.2939 16.5833 5.44184 16.8611 5.64923C17.1014 5.83132 17.3017 6.0569 17.4506 6.3131L24.1231 17.3569C24.3336 17.6913 24.4495 18.0723 24.4595 18.4625C24.4694 18.8527 24.3731 19.2386 24.1799 19.5824L24.1188 19.6826L9.90917 11.8371L13.241 6.31728Z" fill="#7C61FF"/>
<path d="M7.51611 20.5762C6.93427 20.2587 6.50616 19.7354 6.32398 19.119C6.23775 18.8243 6.21574 18.5159 6.25931 18.2128C6.30287 17.9098 6.41109 17.6184 6.57725 17.357L9.90913 11.8372L24.1187 19.6827C23.9117 20.0414 23.6064 20.3393 23.2355 20.5446C22.8647 20.7498 22.4424 20.8546 22.0139 20.8476H8.68641C8.27873 20.852 7.87639 20.7587 7.51611 20.5762Z" fill="#0CD4FF"/>
<path d="M16.8611 5.64926C16.5833 5.44188 16.2621 5.29393 15.9194 5.21541C15.5766 5.1369 15.2202 5.12963 14.8742 5.19413C14.532 5.25404 14.208 5.38588 13.9256 5.58012C13.6431 5.77436 13.4093 6.02615 13.2411 6.31731L9.90917 11.8372L5.25415 9.26094L8.58603 3.74112C9.2695 2.6021 10.2552 1.65574 11.4437 0.997617C12.6322 0.339494 13.9812 -0.00708008 15.3546 -0.00708008C16.728 -0.00708008 18.077 0.339494 19.2655 0.997617C20.4539 1.65574 21.4397 2.6021 22.1231 3.74112L23.1974 5.51565L28.7869 14.7766C29.4524 15.8599 29.8177 17.0877 29.8483 18.3437C29.8788 19.5997 29.5736 20.8423 28.9616 21.9541C28.9092 22.0543 28.848 22.1586 28.7869 22.2589L24.1188 19.6827L24.1799 19.5825C24.3731 19.2386 24.4694 18.8527 24.4595 18.4625C24.4495 18.0724 24.3336 17.6914 24.1231 17.357L17.4507 6.31313C17.3017 6.05693 17.1014 5.83135 16.8611 5.64926Z" fill="#FF818E"/>
</g>
<defs>
<clipPath id="clip0_242_1684">
<rect width="29" height="26" fill="white" transform="translate(0.848022)"/>
</clipPath>
</defs>
</svg>
