<svg width="65" height="66" viewBox="0 0 65 66" fill="none" xmlns="http://www.w3.org/2000/svg">
<path d="M44.3729 19.6218C45.8205 21.0533 46.9396 22.7824 47.6527 24.6892C48.3659 26.5961 48.6561 28.6351 48.5031 30.6652V49.6378H39.4917V45.5518C37.6806 48.6292 34.3013 50.2047 29.3538 50.2783C27.0787 50.3338 24.8184 49.8968 22.7278 48.9973C20.9408 48.2454 19.4075 46.9957 18.3104 45.3971C17.3232 43.8476 16.809 42.0439 16.8306 40.2067C16.7757 38.7997 17.0649 37.4004 17.673 36.1303C18.2811 34.8602 19.1898 33.7576 20.3203 32.9181C23.5481 30.9111 27.3306 29.9829 31.1208 30.2677H38.8733C38.9301 29.3663 38.7873 28.4634 38.4552 27.6235C38.123 26.7836 37.6097 26.0273 36.9517 25.4086C35.308 24.1622 33.2665 23.5576 31.2091 23.7079C29.4312 23.7134 27.6651 23.9966 25.9746 24.5472C24.3808 25.0105 22.8841 25.7588 21.5572 26.7559L18.0896 20.0194C20.1042 18.6458 22.3482 17.6434 24.7156 17.0598C27.2607 16.3482 29.8917 15.9915 32.5343 15.9996C36.7923 15.7048 41.0089 16.9949 44.3729 19.6218V19.6218ZM36.1566 42.5479C37.4168 41.7896 38.3764 40.6193 38.8733 39.2349V35.7673H32.2472C28.2937 35.7673 26.328 37.0704 26.328 39.6767C26.3111 40.246 26.4329 40.8109 26.6831 41.3227C26.9332 41.8345 27.304 42.2777 27.7636 42.6142C28.9463 43.3929 30.3473 43.7721 31.7613 43.6965C33.3033 43.7182 34.8223 43.3213 36.1566 42.5479Z" fill="white"/>
<path d="M62.2853 62.7573H2.89386V3.36584H62.2853V62.7573ZM5.10254 60.5486H60.0766V5.57453H5.10254V60.5486Z" fill="white"/>
<path d="M7.73072 61.6418C7.73072 59.5742 6.0546 57.8981 3.987 57.8981C1.91941 57.8981 0.243286 59.5742 0.243286 61.6418C0.243286 63.7094 1.91941 65.3855 3.987 65.3855C6.0546 65.3855 7.73072 63.7094 7.73072 61.6418Z" fill="white"/>
<path d="M7.73072 4.70221C7.73072 2.63461 6.0546 0.958496 3.987 0.958496C1.91941 0.958496 0.243286 2.63461 0.243286 4.70221C0.243286 6.76981 1.91941 8.44593 3.987 8.44593C6.0546 8.44593 7.73072 6.76981 7.73072 4.70221Z" fill="white"/>
<path d="M36.3333 0.958496H28.8459V8.44593H36.3333V0.958496Z" fill="white"/>
<path d="M36.3333 57.8981H28.8459V65.3855H36.3333V57.8981Z" fill="white"/>
<path d="M64.9357 61.6418C64.9357 59.5742 63.2596 57.8981 61.192 57.8981C59.1244 57.8981 57.4482 59.5742 57.4482 61.6418C57.4482 63.7094 59.1244 65.3855 61.192 65.3855C63.2596 65.3855 64.9357 63.7094 64.9357 61.6418Z" fill="white"/>
<path d="M64.9357 4.70221C64.9357 2.63461 63.2596 0.958496 61.192 0.958496C59.1244 0.958496 57.4482 2.63461 57.4482 4.70221C57.4482 6.76981 59.1244 8.44593 61.192 8.44593C63.2596 8.44593 64.9357 6.76981 64.9357 4.70221Z" fill="white"/>
<path d="M64.9357 29.3179H57.4482V36.8053H64.9357V29.3179Z" fill="white"/>
<path d="M7.73072 29.3179H0.243286V36.8053H7.73072V29.3179Z" fill="white"/>
</svg>
