<svg width="62" height="62" viewBox="0 0 62 62" fill="none" xmlns="http://www.w3.org/2000/svg">
<path d="M51.04 61.5414H2.73608C2.4432 61.5414 2.1623 61.425 1.9552 61.2179C1.74809 61.0108 1.63174 60.7299 1.63174 60.437C1.63174 60.1441 1.74809 59.8633 1.9552 59.6561C2.1623 59.449 2.4432 59.3327 2.73608 59.3327H51.04C53.1177 59.3269 55.1086 58.4989 56.5778 57.0297C58.047 55.5606 58.875 53.5696 58.8808 51.4919V10.8742C58.8808 8.78883 58.0524 6.78887 56.5778 5.31429C55.1032 3.83971 53.1033 3.01129 51.0179 3.01129H10.4223C8.33872 3.01712 6.34214 3.84741 4.86882 5.32073C3.3955 6.79405 2.56522 8.79062 2.55939 10.8742V38.0189C2.55939 38.3118 2.44304 38.5927 2.23594 38.7998C2.02883 39.0069 1.74794 39.1233 1.45505 39.1233C1.16216 39.1233 0.881265 39.0069 0.674161 38.7998C0.467057 38.5927 0.350708 38.3118 0.350708 38.0189V10.8742C0.356543 8.20484 1.41953 5.64649 3.30705 3.75896C5.19458 1.87143 7.75294 0.808447 10.4223 0.802612H51.04C53.7073 0.808462 56.2634 1.87216 58.1474 3.76031C60.0314 5.64847 61.0895 8.20687 61.0895 10.8742V51.4919C61.0778 54.1536 60.0153 56.703 58.1332 58.5851C56.2511 60.4672 53.7017 61.5298 51.04 61.5414Z" fill="white"/>
<path d="M2.31638 51.2489L11.8137 60.7683L3.22194 61.5414C2.98596 61.565 2.74768 61.5363 2.52407 61.4573C2.30046 61.3783 2.09703 61.2509 1.92829 61.0843C1.75954 60.9177 1.62963 60.7159 1.54782 60.4933C1.46601 60.2707 1.43432 60.0328 1.45499 59.7965L2.31638 51.2489Z" fill="white"/>
<path d="M15.149 58.5817C15.0046 58.5808 14.8618 58.5511 14.729 58.4942C14.5962 58.4373 14.4762 58.3544 14.376 58.2504L4.81238 48.6868C4.70674 48.5876 4.62253 48.4679 4.56498 48.3349C4.50742 48.202 4.47772 48.0586 4.47772 47.9138C4.47772 47.7689 4.50742 47.6255 4.56498 47.4926C4.62253 47.3596 4.70674 47.2399 4.81238 47.1407L34.5854 17.3677C34.6881 17.2642 34.8102 17.182 34.9448 17.1259C35.0794 17.0699 35.2237 17.041 35.3695 17.041C35.5153 17.041 35.6596 17.0699 35.7942 17.1259C35.9288 17.182 36.0509 17.2642 36.1536 17.3677L45.6288 26.9092C45.7349 27.0078 45.8192 27.1275 45.8763 27.2606C45.9333 27.3938 45.9619 27.5374 45.9601 27.6822C45.9469 27.9586 45.8284 28.2194 45.6288 28.4111L15.9441 58.2504C15.7335 58.4618 15.4475 58.581 15.149 58.5817V58.5817ZM7.15358 47.9138L15.149 55.9092L43.4201 27.6822L35.4247 19.6868L7.15358 47.9138Z" fill="white"/>
<path d="M38.8318 21.5977L9.04877 51.3807L11.6882 54.0201L41.4712 24.2371L38.8318 21.5977Z" fill="white"/>
<path d="M46.2252 10.4139L52.6129 16.8016C53.0271 17.2158 53.2598 17.7776 53.2598 18.3634C53.2598 18.9491 53.0271 19.5109 52.6129 19.9251L47.787 24.751L38.2602 15.2242L43.0704 10.4139C43.4846 9.99973 44.0464 9.76703 44.6322 9.76703C45.218 9.76703 45.7798 9.99973 46.194 10.4139L46.2252 10.4139Z" fill="white"/>
</svg>
