<svg width="62" height="62" viewBox="0 0 62 62" fill="none" xmlns="http://www.w3.org/2000/svg">
<path d="M50.9785 61.0044H10.3608C7.68765 60.9985 5.12596 59.9325 3.2378 58.0402C1.34965 56.1479 0.289239 53.5839 0.289246 50.9107V10.3372C0.29508 7.66786 1.35807 5.1095 3.24559 3.22197C5.13312 1.33445 7.69148 0.27146 10.3608 0.265625H50.9785C53.644 0.277284 56.1967 1.34284 58.0795 3.22974C59.9623 5.11664 61.0222 7.67167 61.028 10.3372V50.9549C61.0106 53.6148 59.9463 56.1609 58.0654 58.0418C56.1845 59.9227 53.6384 60.987 50.9785 61.0044ZM10.3608 2.47431C8.27725 2.48014 6.28068 3.31042 4.80736 4.78374C3.33404 6.25706 2.50376 8.25363 2.49793 10.3372V50.9549C2.50957 53.0346 3.34242 55.0256 4.81511 56.4941C6.28781 57.9627 8.28106 58.7899 10.3608 58.7957H50.9785C53.0544 58.7841 55.0421 57.9543 56.51 56.4864C57.9779 55.0184 58.8077 53.0308 58.8193 50.9549V10.3372C58.8135 8.24981 57.9802 6.2499 56.5021 4.77595C55.024 3.302 53.0217 2.4743 50.9343 2.47431H10.3608Z" fill="white"/>
<path d="M59.9679 15.3508H1.39362V17.5595H59.9679V15.3508Z" fill="white"/>
<path d="M52.5245 10.1825C53.0856 10.1825 53.5405 9.72763 53.5405 9.16651C53.5405 8.60539 53.0856 8.15051 52.5245 8.15051C51.9634 8.15051 51.5085 8.60539 51.5085 9.16651C51.5085 9.72763 51.9634 10.1825 52.5245 10.1825Z" fill="white"/>
<path d="M48.0631 10.1825C48.6242 10.1825 49.0791 9.72763 49.0791 9.16651C49.0791 8.60539 48.6242 8.15051 48.0631 8.15051C47.502 8.15051 47.0471 8.60539 47.0471 9.16651C47.0471 9.72763 47.502 10.1825 48.0631 10.1825Z" fill="white"/>
<path d="M43.6016 10.1825C44.1627 10.1825 44.6176 9.72763 44.6176 9.16651C44.6176 8.60539 44.1627 8.15051 43.6016 8.15051C43.0404 8.15051 42.5856 8.60539 42.5856 9.16651C42.5856 9.72763 43.0404 10.1825 43.6016 10.1825Z" fill="white"/>
<path d="M49.7416 51.8163H11.6198C11.3269 51.8163 11.046 51.6999 10.8389 51.4928C10.6318 51.2857 10.5154 51.0048 10.5154 50.712V25.6655C10.5154 25.3726 10.6318 25.0917 10.8389 24.8846C11.046 24.6775 11.3269 24.5612 11.6198 24.5612H49.7416C50.0345 24.5612 50.3154 24.6775 50.5225 24.8846C50.7296 25.0917 50.846 25.3726 50.846 25.6655V50.712C50.8403 51.0031 50.7222 51.2807 50.5163 51.4866C50.3104 51.6925 50.0328 51.8106 49.7416 51.8163ZM12.7241 49.6076H48.6373V26.6815H12.7241V49.6076Z" fill="white"/>
<path d="M11.6197 51.8163C11.4353 51.8141 11.2543 51.7666 11.0925 51.678C10.9308 51.5894 10.7933 51.4625 10.692 51.3083C10.5322 51.0649 10.475 50.7681 10.5329 50.4827C10.5908 50.1973 10.7592 49.9463 11.0012 49.7843L49.1231 24.6495C49.3691 24.4885 49.6691 24.4317 49.9569 24.4918C50.2448 24.5518 50.497 24.7238 50.6581 24.9698C50.8192 25.2158 50.876 25.5158 50.8159 25.8036C50.7559 26.0915 50.5839 26.3437 50.3379 26.5048L12.216 51.6176C12.0432 51.7452 11.8345 51.8148 11.6197 51.8163V51.8163Z" fill="white"/>
<path d="M49.7194 51.8163C49.5046 51.8148 49.2959 51.7452 49.1231 51.6176L11.0012 26.5048C10.7552 26.3437 10.5833 26.0915 10.5232 25.8036C10.4631 25.5158 10.5199 25.2158 10.681 24.9698C10.8421 24.7238 11.0943 24.5518 11.3822 24.4918C11.67 24.4317 11.97 24.4885 12.216 24.6495L50.3379 49.7843C50.58 49.9463 50.7483 50.1973 50.8062 50.4827C50.8641 50.7681 50.8069 51.0649 50.6471 51.3083C50.5505 51.4668 50.4139 51.5971 50.2511 51.6863C50.0883 51.7754 49.905 51.8203 49.7194 51.8163V51.8163Z" fill="white"/>
</svg>
